<?xml version="1.0" encoding="UTF-8" standalone="no"?>
<!DOCTYPE svg PUBLIC "-//W3C//DTD SVG 1.1//EN"
 "http://www.w3.org/Graphics/SVG/1.1/DTD/svg11.dtd">
<!-- Generated by graphviz version 2.26.3 (20100126.1600)
 -->
<!-- Title: web Pages: 1 -->
<svg width="1852pt" height="1196pt"
 viewBox="0.00 0.00 1852.00 1196.00" xmlns="http://www.w3.org/2000/svg" xmlns:xlink="http://www.w3.org/1999/xlink">
<g id="graph1" class="graph" transform="scale(1 1) rotate(0) translate(4 1192)">
<title>web</title>
<polygon fill="white" stroke="white" points="-4,5 -4,-1192 1849,-1192 1849,5 -4,5"/>
<!-- concepts\n\nparent= -->
<g id="node1" class="node"><title>concepts\n\nparent=</title>
<ellipse fill="none" stroke="black" cx="944" cy="-1104" rx="106.98" ry="83.4386"/>
<text text-anchor="middle" x="944" y="-1132" font-family="Times Roman,serif" font-size="30.00">concepts</text>
<text text-anchor="middle" x="944" y="-1059" font-family="Times Roman,serif" font-size="30.00">parent=</text>
</g>
<!-- action\n\nparent=concepts -->
<g id="node3" class="node"><title>action\n\nparent=concepts</title>
<ellipse fill="none" stroke="black" cx="739" cy="-900" rx="193.954" ry="83.4386"/>
<text text-anchor="middle" x="739" y="-928" font-family="Times Roman,serif" font-size="30.00">action</text>
<text text-anchor="middle" x="739" y="-855" font-family="Times Roman,serif" font-size="30.00">parent=concepts</text>
</g>
<!-- concepts\n\nparent=&#45;&gt;action\n\nparent=concepts -->
<g id="edge2" class="edge"><title>concepts\n\nparent=&#45;&gt;action\n\nparent=concepts</title>
<path fill="none" stroke="black" d="M877.725,-1038.05C860.376,-1020.78 841.437,-1001.94 823.286,-983.875"/>
<polygon fill="black" stroke="black" points="825.662,-981.301 816.105,-976.729 820.724,-986.263 825.662,-981.301"/>
</g>
<!-- descriptor\n\nparent=concepts -->
<g id="node19" class="node"><title>descriptor\n\nparent=concepts</title>
<ellipse fill="none" stroke="black" cx="1149" cy="-900" rx="193.954" ry="83.4386"/>
<text text-anchor="middle" x="1149" y="-928" font-family="Times Roman,serif" font-size="30.00">descriptor</text>
<text text-anchor="middle" x="1149" y="-855" font-family="Times Roman,serif" font-size="30.00">parent=concepts</text>
</g>
<!-- concepts\n\nparent=&#45;&gt;descriptor\n\nparent=concepts -->
<g id="edge18" class="edge"><title>concepts\n\nparent=&#45;&gt;descriptor\n\nparent=concepts</title>
<path fill="none" stroke="black" d="M1010.27,-1038.05C1027.62,-1020.78 1046.56,-1001.94 1064.71,-983.875"/>
<polygon fill="black" stroke="black" points="1067.28,-986.263 1071.9,-976.729 1062.34,-981.301 1067.28,-986.263"/>
</g>
<!-- movement\n\nparent=action -->
<g id="node5" class="node"><title>movement\n\nparent=action</title>
<ellipse fill="none" stroke="black" cx="731" cy="-696" rx="164.756" ry="83.4386"/>
<text text-anchor="middle" x="731" y="-724" font-family="Times Roman,serif" font-size="30.00">movement</text>
<text text-anchor="middle" x="731" y="-651" font-family="Times Roman,serif" font-size="30.00">parent=action</text>
</g>
<!-- action\n\nparent=concepts&#45;&gt;movement\n\nparent=action -->
<g id="edge4" class="edge"><title>action\n\nparent=concepts&#45;&gt;movement\n\nparent=action</title>
<path fill="none" stroke="black" d="M735.723,-816.437C735.378,-807.643 735.026,-798.659 734.677,-789.76"/>
<polygon fill="black" stroke="black" points="738.174,-789.619 734.285,-779.763 731.179,-789.893 738.174,-789.619"/>
</g>
<!-- travel\n\nparent=movement -->
<g id="node7" class="node"><title>travel\n\nparent=movement</title>
<ellipse fill="none" stroke="black" cx="726" cy="-492" rx="213.754" ry="83.4386"/>
<text text-anchor="middle" x="726" y="-520" font-family="Times Roman,serif" font-size="30.00">travel</text>
<text text-anchor="middle" x="726" y="-447" font-family="Times Roman,serif" font-size="30.00">parent=movement</text>
</g>
<!-- movement\n\nparent=action&#45;&gt;travel\n\nparent=movement -->
<g id="edge6" class="edge"><title>movement\n\nparent=action&#45;&gt;travel\n\nparent=movement</title>
<path fill="none" stroke="black" d="M728.952,-612.437C728.739,-603.737 728.521,-594.853 728.305,-586.047"/>
<polygon fill="black" stroke="black" points="731.797,-585.675 728.053,-575.763 724.799,-585.846 731.797,-585.675"/>
</g>
<!-- travel reqgrp 0 -->
<g id="node9" class="node"><title>travel reqgrp 0</title>
<ellipse fill="none" stroke="black" cx="303" cy="-288" rx="169.913" ry="31.8198"/>
<text text-anchor="middle" x="303" y="-279.5" font-family="Times Roman,serif" font-size="30.00">travel reqgrp 0</text>
</g>
<!-- travel\n\nparent=movement&#45;&gt;travel reqgrp 0 -->
<g id="edge8" class="edge"><title>travel\n\nparent=movement&#45;&gt;travel reqgrp 0</title>
<path fill="none" stroke="black" d="M591.288,-427.033C519.203,-392.268 433.349,-350.863 374.185,-322.33"/>
<polygon fill="black" stroke="black" points="375.452,-319.056 364.925,-317.864 372.411,-325.361 375.452,-319.056"/>
</g>
<!-- travel reqgrp 1 -->
<g id="node13" class="node"><title>travel reqgrp 1</title>
<ellipse fill="none" stroke="black" cx="726" cy="-288" rx="169.913" ry="31.8198"/>
<text text-anchor="middle" x="726" y="-279.5" font-family="Times Roman,serif" font-size="30.00">travel reqgrp 1</text>
</g>
<!-- travel\n\nparent=movement&#45;&gt;travel reqgrp 1 -->
<g id="edge12" class="edge"><title>travel\n\nparent=movement&#45;&gt;travel reqgrp 1</title>
<path fill="none" stroke="black" d="M726,-408.437C726,-381.555 726,-352.905 726,-330.295"/>
<polygon fill="black" stroke="black" points="729.5,-330.039 726,-320.039 722.5,-330.039 729.5,-330.039"/>
</g>
<!-- travel reqgrp 0 req 0\n\nplace from descriptor -->
<g id="node11" class="node"><title>travel reqgrp 0 req 0\n\nplace from descriptor</title>
<ellipse fill="none" stroke="black" cx="238" cy="-84" rx="237.795" ry="83.4386"/>
<text text-anchor="middle" x="238" y="-112" font-family="Times Roman,serif" font-size="30.00">travel reqgrp 0 req 0</text>
<text text-anchor="middle" x="238" y="-39" font-family="Times Roman,serif" font-size="30.00">place from descriptor</text>
</g>
<!-- travel reqgrp 0&#45;&gt;travel reqgrp 0 req 0\n\nplace from descriptor -->
<g id="edge10" class="edge"><title>travel reqgrp 0&#45;&gt;travel reqgrp 0 req 0\n\nplace from descriptor</title>
<path fill="none" stroke="red" d="M292.701,-255.676C285.882,-234.277 276.567,-205.041 267.556,-176.76"/>
<polygon fill="red" stroke="red" points="270.886,-175.684 264.516,-167.218 264.217,-177.809 270.886,-175.684"/>
</g>
<!-- travel reqgrp 1 req 0\n\ndistance from unit -->
<g id="node15" class="node"><title>travel reqgrp 1 req 0\n\ndistance from unit</title>
<ellipse fill="none" stroke="black" cx="726" cy="-84" rx="231.931" ry="83.4386"/>
<text text-anchor="middle" x="726" y="-112" font-family="Times Roman,serif" font-size="30.00">travel reqgrp 1 req 0</text>
<text text-anchor="middle" x="726" y="-39" font-family="Times Roman,serif" font-size="30.00">distance from unit</text>
</g>
<!-- travel reqgrp 1&#45;&gt;travel reqgrp 1 req 0\n\ndistance from unit -->
<g id="edge14" class="edge"><title>travel reqgrp 1&#45;&gt;travel reqgrp 1 req 0\n\ndistance from unit</title>
<path fill="none" stroke="red" d="M726,-255.676C726,-234.563 726,-205.821 726,-177.895"/>
<polygon fill="red" stroke="red" points="729.5,-177.659 726,-167.659 722.5,-177.659 729.5,-177.659"/>
</g>
<!-- travel reqgrp 1 req 1\n\ndirection from descriptor -->
<g id="node17" class="node"><title>travel reqgrp 1 req 1\n\ndirection from descriptor</title>
<ellipse fill="none" stroke="black" cx="1249" cy="-84" rx="272.943" ry="83.4386"/>
<text text-anchor="middle" x="1249" y="-112" font-family="Times Roman,serif" font-size="30.00">travel reqgrp 1 req 1</text>
<text text-anchor="middle" x="1249" y="-39" font-family="Times Roman,serif" font-size="30.00">direction from descriptor</text>
</g>
<!-- travel reqgrp 1&#45;&gt;travel reqgrp 1 req 1\n\ndirection from descriptor -->
<g id="edge16" class="edge"><title>travel reqgrp 1&#45;&gt;travel reqgrp 1 req 1\n\ndirection from descriptor</title>
<path fill="none" stroke="red" d="M786.205,-257.85C820.611,-241.1 864.79,-220.397 905,-204 952.359,-184.688 1004.12,-165.603 1052.78,-148.53"/>
<polygon fill="red" stroke="red" points="1054.18,-151.747 1062.46,-145.142 1051.87,-145.139 1054.18,-151.747"/>
</g>
<!-- place\n\nparent=descriptor -->
<g id="node21" class="node"><title>place\n\nparent=descriptor</title>
<ellipse fill="none" stroke="black" cx="1149" cy="-696" rx="205.768" ry="83.4386"/>
<text text-anchor="middle" x="1149" y="-724" font-family="Times Roman,serif" font-size="30.00">place</text>
<text text-anchor="middle" x="1149" y="-651" font-family="Times Roman,serif" font-size="30.00">parent=descriptor</text>
</g>
<!-- descriptor\n\nparent=concepts&#45;&gt;place\n\nparent=descriptor -->
<g id="edge20" class="edge"><title>descriptor\n\nparent=concepts&#45;&gt;place\n\nparent=descriptor</title>
<path fill="none" stroke="black" d="M1149,-816.437C1149,-807.737 1149,-798.853 1149,-790.047"/>
<polygon fill="black" stroke="black" points="1152.5,-789.763 1149,-779.763 1145.5,-789.763 1152.5,-789.763"/>
</g>
<!-- color\n\nparent=descriptor -->
<g id="node27" class="node"><title>color\n\nparent=descriptor</title>
<ellipse fill="none" stroke="black" cx="1601" cy="-696" rx="205.768" ry="83.4386"/>
<text text-anchor="middle" x="1601" y="-724" font-family="Times Roman,serif" font-size="30.00">color</text>
<text text-anchor="middle" x="1601" y="-651" font-family="Times Roman,serif" font-size="30.00">parent=descriptor</text>
</g>
<!-- descriptor\n\nparent=concepts&#45;&gt;color\n\nparent=descriptor -->
<g id="edge26" class="edge"><title>descriptor\n\nparent=concepts&#45;&gt;color\n\nparent=descriptor</title>
<path fill="none" stroke="black" d="M1283.09,-839.483C1336.72,-815.276 1398.69,-787.31 1453.58,-762.534"/>
<polygon fill="black" stroke="black" points="1455.36,-765.571 1463.04,-758.267 1452.48,-759.191 1455.36,-765.571"/>
</g>
<!-- place reqgrp 0 -->
<g id="node23" class="node"><title>place reqgrp 0</title>
<ellipse fill="none" stroke="black" cx="1149" cy="-492" rx="164.963" ry="31.8198"/>
<text text-anchor="middle" x="1149" y="-483.5" font-family="Times Roman,serif" font-size="30.00">place reqgrp 0</text>
</g>
<!-- place\n\nparent=descriptor&#45;&gt;place reqgrp 0 -->
<g id="edge22" class="edge"><title>place\n\nparent=descriptor&#45;&gt;place reqgrp 0</title>
<path fill="none" stroke="black" d="M1149,-612.437C1149,-585.555 1149,-556.905 1149,-534.295"/>
<polygon fill="black" stroke="black" points="1152.5,-534.039 1149,-524.039 1145.5,-534.039 1152.5,-534.039"/>
</g>
<!-- place reqgrp 0 req 0\n\naction from concepts -->
<g id="node25" class="node"><title>place reqgrp 0 req 0\n\naction from concepts</title>
<ellipse fill="none" stroke="black" cx="1149" cy="-288" rx="234.759" ry="83.4386"/>
<text text-anchor="middle" x="1149" y="-316" font-family="Times Roman,serif" font-size="30.00">place reqgrp 0 req 0</text>
<text text-anchor="middle" x="1149" y="-243" font-family="Times Roman,serif" font-size="30.00">action from concepts</text>
</g>
<!-- place reqgrp 0&#45;&gt;place reqgrp 0 req 0\n\naction from concepts -->
<g id="edge24" class="edge"><title>place reqgrp 0&#45;&gt;place reqgrp 0 req 0\n\naction from concepts</title>
<path fill="none" stroke="red" d="M1149,-459.676C1149,-438.563 1149,-409.821 1149,-381.895"/>
<polygon fill="red" stroke="red" points="1152.5,-381.659 1149,-371.659 1145.5,-381.659 1152.5,-381.659"/>
</g>
<!-- color reqgrp 0 -->
<g id="node29" class="node"><title>color reqgrp 0</title>
<ellipse fill="none" stroke="black" cx="1612" cy="-492" rx="159.806" ry="31.8198"/>
<text text-anchor="middle" x="1612" y="-483.5" font-family="Times Roman,serif" font-size="30.00">color reqgrp 0</text>
</g>
<!-- color\n\nparent=descriptor&#45;&gt;color reqgrp 0 -->
<g id="edge28" class="edge"><title>color\n\nparent=descriptor&#45;&gt;color reqgrp 0</title>
<path fill="none" stroke="black" d="M1605.51,-612.437C1606.96,-585.555 1608.5,-556.905 1609.72,-534.295"/>
<polygon fill="black" stroke="black" points="1613.23,-534.213 1610.27,-524.039 1606.24,-533.836 1613.23,-534.213"/>
</g>
<!-- color reqgrp 0 req 0\n\ncolor from value -->
<g id="node31" class="node"><title>color reqgrp 0 req 0\n\ncolor from value</title>
<ellipse fill="none" stroke="black" cx="1623" cy="-288" rx="220.825" ry="83.4386"/>
<text text-anchor="middle" x="1623" y="-316" font-family="Times Roman,serif" font-size="30.00">color reqgrp 0 req 0</text>
<text text-anchor="middle" x="1623" y="-243" font-family="Times Roman,serif" font-size="30.00">color from value</text>
</g>
<!-- color reqgrp 0&#45;&gt;color reqgrp 0 req 0\n\ncolor from value -->
<g id="edge30" class="edge"><title>color reqgrp 0&#45;&gt;color reqgrp 0 req 0\n\ncolor from value</title>
<path fill="none" stroke="red" d="M1613.74,-459.676C1614.88,-438.563 1616.43,-409.821 1617.94,-381.895"/>
<polygon fill="red" stroke="red" points="1621.45,-381.833 1618.49,-371.659 1614.46,-381.456 1621.45,-381.833"/>
</g>
</g>
</svg>
