<?xml version="1.0" encoding="UTF-8" standalone="no"?>
<!DOCTYPE svg PUBLIC "-//W3C//DTD SVG 1.1//EN"
 "http://www.w3.org/Graphics/SVG/1.1/DTD/svg11.dtd">
<!-- Generated by graphviz version 2.26.3 (20100126.1600)
 -->
<!-- Title: web Pages: 1 -->
<svg width="2670pt" height="704pt"
 viewBox="0.00 0.00 2670.00 704.00" xmlns="http://www.w3.org/2000/svg" xmlns:xlink="http://www.w3.org/1999/xlink">
<g id="graph1" class="graph" transform="scale(1 1) rotate(0) translate(4 700)">
<title>web</title>
<polygon fill="white" stroke="white" points="-4,5 -4,-700 2667,-700 2667,5 -4,5"/>
<!-- concepts\n\nparent= -->
<g id="node1" class="node"><title>concepts\n\nparent=</title>
<ellipse fill="none" stroke="black" cx="1229" cy="-653" rx="53.9477" ry="42.4264"/>
<text text-anchor="middle" x="1229" y="-666.4" font-family="Times Roman,serif" font-size="14.00">concepts</text>
<text text-anchor="middle" x="1229" y="-632.4" font-family="Times Roman,serif" font-size="14.00">parent=</text>
</g>
<!-- action\n\nparent=concepts -->
<g id="node3" class="node"><title>action\n\nparent=concepts</title>
<ellipse fill="none" stroke="black" cx="818" cy="-531" rx="94.7523" ry="42.4264"/>
<text text-anchor="middle" x="818" y="-544.4" font-family="Times Roman,serif" font-size="14.00">action</text>
<text text-anchor="middle" x="818" y="-510.4" font-family="Times Roman,serif" font-size="14.00">parent=concepts</text>
</g>
<!-- concepts\n\nparent=&#45;&gt;action\n\nparent=concepts -->
<g id="edge2" class="edge"><title>concepts\n\nparent=&#45;&gt;action\n\nparent=concepts</title>
<path fill="none" stroke="black" d="M1178.19,-637.918C1110.53,-617.834 989.772,-581.988 906.87,-557.38"/>
<polygon fill="black" stroke="black" points="907.789,-554.002 897.206,-554.511 905.797,-560.712 907.789,-554.002"/>
</g>
<!-- value\n\nparent=concepts -->
<g id="node25" class="node"><title>value\n\nparent=concepts</title>
<ellipse fill="none" stroke="black" cx="1229" cy="-531" rx="94.7523" ry="42.4264"/>
<text text-anchor="middle" x="1229" y="-544.4" font-family="Times Roman,serif" font-size="14.00">value</text>
<text text-anchor="middle" x="1229" y="-510.4" font-family="Times Roman,serif" font-size="14.00">parent=concepts</text>
</g>
<!-- concepts\n\nparent=&#45;&gt;value\n\nparent=concepts -->
<g id="edge24" class="edge"><title>concepts\n\nparent=&#45;&gt;value\n\nparent=concepts</title>
<path fill="none" stroke="black" d="M1229,-610.33C1229,-601.836 1229,-592.818 1229,-584.025"/>
<polygon fill="black" stroke="black" points="1232.5,-583.852 1229,-573.852 1225.5,-583.852 1232.5,-583.852"/>
</g>
<!-- descriptor\n\nparent=concepts -->
<g id="node39" class="node"><title>descriptor\n\nparent=concepts</title>
<ellipse fill="none" stroke="black" cx="1817" cy="-531" rx="94.7523" ry="42.4264"/>
<text text-anchor="middle" x="1817" y="-544.4" font-family="Times Roman,serif" font-size="14.00">descriptor</text>
<text text-anchor="middle" x="1817" y="-510.4" font-family="Times Roman,serif" font-size="14.00">parent=concepts</text>
</g>
<!-- concepts\n\nparent=&#45;&gt;descriptor\n\nparent=concepts -->
<g id="edge38" class="edge"><title>concepts\n\nparent=&#45;&gt;descriptor\n\nparent=concepts</title>
<path fill="none" stroke="black" d="M1281.44,-642.12C1380.24,-621.621 1595.27,-577.006 1720.74,-550.973"/>
<polygon fill="black" stroke="black" points="1721.65,-554.358 1730.73,-548.9 1720.23,-547.504 1721.65,-554.358"/>
</g>
<!-- movement\n\nparent=action -->
<g id="node5" class="node"><title>movement\n\nparent=action</title>
<ellipse fill="none" stroke="black" cx="716" cy="-409" rx="82.0244" ry="42.4264"/>
<text text-anchor="middle" x="716" y="-422.4" font-family="Times Roman,serif" font-size="14.00">movement</text>
<text text-anchor="middle" x="716" y="-388.4" font-family="Times Roman,serif" font-size="14.00">parent=action</text>
</g>
<!-- action\n\nparent=concepts&#45;&gt;movement\n\nparent=action -->
<g id="edge4" class="edge"><title>action\n\nparent=concepts&#45;&gt;movement\n\nparent=action</title>
<path fill="none" stroke="black" d="M784.601,-491.053C775.254,-479.873 765.008,-467.618 755.351,-456.067"/>
<polygon fill="black" stroke="black" points="757.877,-453.632 748.778,-448.205 752.507,-458.122 757.877,-453.632"/>
</g>
<!-- travel\n\nparent=movement -->
<g id="node7" class="node"><title>travel\n\nparent=movement</title>
<ellipse fill="none" stroke="black" cx="669" cy="-287" rx="104.151" ry="42.4264"/>
<text text-anchor="middle" x="669" y="-300.4" font-family="Times Roman,serif" font-size="14.00">travel</text>
<text text-anchor="middle" x="669" y="-266.4" font-family="Times Roman,serif" font-size="14.00">parent=movement</text>
</g>
<!-- movement\n\nparent=action&#45;&gt;travel\n\nparent=movement -->
<g id="edge6" class="edge"><title>movement\n\nparent=action&#45;&gt;travel\n\nparent=movement</title>
<path fill="none" stroke="black" d="M699.825,-367.015C696.28,-357.813 692.488,-347.97 688.819,-338.445"/>
<polygon fill="black" stroke="black" points="692.066,-337.136 685.205,-329.063 685.534,-339.653 692.066,-337.136"/>
</g>
<!-- travel reqgrp 0 -->
<g id="node9" class="node"><title>travel reqgrp 0</title>
<ellipse fill="none" stroke="black" cx="275" cy="-165" rx="84.8528" ry="18.3848"/>
<text text-anchor="middle" x="275" y="-161.4" font-family="Times Roman,serif" font-size="14.00">travel reqgrp 0</text>
</g>
<!-- travel\n\nparent=movement&#45;&gt;travel reqgrp 0 -->
<g id="edge8" class="edge"><title>travel\n\nparent=movement&#45;&gt;travel reqgrp 0</title>
<path fill="none" stroke="black" d="M585.924,-261.276C510.44,-237.903 400.957,-204.002 334.065,-183.289"/>
<polygon fill="black" stroke="black" points="334.698,-179.821 324.11,-180.207 332.628,-186.508 334.698,-179.821"/>
</g>
<!-- travel reqgrp 1 -->
<g id="node13" class="node"><title>travel reqgrp 1</title>
<ellipse fill="none" stroke="black" cx="623" cy="-165" rx="84.8528" ry="18.3848"/>
<text text-anchor="middle" x="623" y="-161.4" font-family="Times Roman,serif" font-size="14.00">travel reqgrp 1</text>
</g>
<!-- travel\n\nparent=movement&#45;&gt;travel reqgrp 1 -->
<g id="edge12" class="edge"><title>travel\n\nparent=movement&#45;&gt;travel reqgrp 1</title>
<path fill="none" stroke="black" d="M653.041,-244.673C646.612,-227.623 639.372,-208.42 633.61,-193.139"/>
<polygon fill="black" stroke="black" points="636.863,-191.848 630.06,-183.725 630.314,-194.317 636.863,-191.848"/>
</g>
<!-- travel reqgrp 2 -->
<g id="node19" class="node"><title>travel reqgrp 2</title>
<ellipse fill="none" stroke="black" cx="848" cy="-165" rx="84.8528" ry="18.3848"/>
<text text-anchor="middle" x="848" y="-161.4" font-family="Times Roman,serif" font-size="14.00">travel reqgrp 2</text>
</g>
<!-- travel\n\nparent=movement&#45;&gt;travel reqgrp 2 -->
<g id="edge18" class="edge"><title>travel\n\nparent=movement&#45;&gt;travel reqgrp 2</title>
<path fill="none" stroke="black" d="M722.706,-250.396C752.128,-230.343 787.728,-206.079 813.45,-188.548"/>
<polygon fill="black" stroke="black" points="815.479,-191.401 821.771,-182.877 811.537,-185.616 815.479,-191.401"/>
</g>
<!-- travel reqgrp 0 req 0\n\nplace from descriptor -->
<g id="node11" class="node"><title>travel reqgrp 0 req 0\n\nplace from descriptor</title>
<ellipse fill="none" stroke="black" cx="114" cy="-43" rx="113.844" ry="42.4264"/>
<text text-anchor="middle" x="114" y="-56.4" font-family="Times Roman,serif" font-size="14.00">travel reqgrp 0 req 0</text>
<text text-anchor="middle" x="114" y="-22.4" font-family="Times Roman,serif" font-size="14.00">place from descriptor</text>
</g>
<!-- travel reqgrp 0&#45;&gt;travel reqgrp 0 req 0\n\nplace from descriptor -->
<g id="edge10" class="edge"><title>travel reqgrp 0&#45;&gt;travel reqgrp 0 req 0\n\nplace from descriptor</title>
<path fill="none" stroke="red" d="M251.244,-146.998C230.634,-131.381 199.927,-108.112 172.781,-87.5421"/>
<polygon fill="red" stroke="red" points="174.57,-84.5064 164.486,-81.2564 170.342,-90.0855 174.57,-84.5064"/>
</g>
<!-- travel reqgrp 1 req 0\n\ndistance from unit -->
<g id="node15" class="node"><title>travel reqgrp 1 req 0\n\ndistance from unit</title>
<ellipse fill="none" stroke="black" cx="360" cy="-43" rx="113.844" ry="42.4264"/>
<text text-anchor="middle" x="360" y="-56.4" font-family="Times Roman,serif" font-size="14.00">travel reqgrp 1 req 0</text>
<text text-anchor="middle" x="360" y="-22.4" font-family="Times Roman,serif" font-size="14.00">distance from unit</text>
</g>
<!-- travel reqgrp 1&#45;&gt;travel reqgrp 1 req 0\n\ndistance from unit -->
<g id="edge14" class="edge"><title>travel reqgrp 1&#45;&gt;travel reqgrp 1 req 0\n\ndistance from unit</title>
<path fill="none" stroke="red" d="M586.707,-148.165C549.243,-130.786 489.558,-103.099 440.83,-80.4954"/>
<polygon fill="red" stroke="red" points="442.099,-77.2257 431.554,-76.1926 439.153,-83.5757 442.099,-77.2257"/>
</g>
<!-- travel reqgrp 1 req 1\n\ndirection from descriptor -->
<g id="node17" class="node"><title>travel reqgrp 1 req 1\n\ndirection from descriptor</title>
<ellipse fill="none" stroke="black" cx="623" cy="-43" rx="130.815" ry="42.4264"/>
<text text-anchor="middle" x="623" y="-56.4" font-family="Times Roman,serif" font-size="14.00">travel reqgrp 1 req 1</text>
<text text-anchor="middle" x="623" y="-22.4" font-family="Times Roman,serif" font-size="14.00">direction from descriptor</text>
</g>
<!-- travel reqgrp 1&#45;&gt;travel reqgrp 1 req 1\n\ndirection from descriptor -->
<g id="edge16" class="edge"><title>travel reqgrp 1&#45;&gt;travel reqgrp 1 req 1\n\ndirection from descriptor</title>
<path fill="none" stroke="red" d="M623,-146.471C623,-132.923 623,-113.827 623,-95.7215"/>
<polygon fill="red" stroke="red" points="626.5,-95.5171 623,-85.5171 619.5,-95.5172 626.5,-95.5171"/>
</g>
<!-- travel reqgrp 2 req 0\n\ntime from unit -->
<g id="node21" class="node"><title>travel reqgrp 2 req 0\n\ntime from unit</title>
<ellipse fill="none" stroke="black" cx="886" cy="-43" rx="113.844" ry="42.4264"/>
<text text-anchor="middle" x="886" y="-56.4" font-family="Times Roman,serif" font-size="14.00">travel reqgrp 2 req 0</text>
<text text-anchor="middle" x="886" y="-22.4" font-family="Times Roman,serif" font-size="14.00">time from unit</text>
</g>
<!-- travel reqgrp 2&#45;&gt;travel reqgrp 2 req 0\n\ntime from unit -->
<g id="edge20" class="edge"><title>travel reqgrp 2&#45;&gt;travel reqgrp 2 req 0\n\ntime from unit</title>
<path fill="none" stroke="red" d="M853.771,-146.471C858.048,-132.74 864.1,-113.311 869.806,-94.9902"/>
<polygon fill="red" stroke="red" points="873.205,-95.8476 872.837,-85.2591 866.522,-93.7659 873.205,-95.8476"/>
</g>
<!-- travel reqgrp 2 req 1\n\ndirection from descriptor -->
<g id="node23" class="node"><title>travel reqgrp 2 req 1\n\ndirection from descriptor</title>
<ellipse fill="none" stroke="black" cx="1149" cy="-43" rx="130.815" ry="42.4264"/>
<text text-anchor="middle" x="1149" y="-56.4" font-family="Times Roman,serif" font-size="14.00">travel reqgrp 2 req 1</text>
<text text-anchor="middle" x="1149" y="-22.4" font-family="Times Roman,serif" font-size="14.00">direction from descriptor</text>
</g>
<!-- travel reqgrp 2&#45;&gt;travel reqgrp 2 req 1\n\ndirection from descriptor -->
<g id="edge22" class="edge"><title>travel reqgrp 2&#45;&gt;travel reqgrp 2 req 1\n\ndirection from descriptor</title>
<path fill="none" stroke="red" d="M883.47,-148.12C900.972,-139.959 922.469,-130.184 942,-122 977.671,-107.053 1017.25,-91.6602 1052.17,-78.478"/>
<polygon fill="red" stroke="red" points="1053.76,-81.6187 1061.89,-74.8207 1051.3,-75.0672 1053.76,-81.6187"/>
</g>
<!-- number\n\nparent=value -->
<g id="node27" class="node"><title>number\n\nparent=value</title>
<ellipse fill="none" stroke="black" cx="1105" cy="-409" rx="79.196" ry="42.4264"/>
<text text-anchor="middle" x="1105" y="-422.4" font-family="Times Roman,serif" font-size="14.00">number</text>
<text text-anchor="middle" x="1105" y="-388.4" font-family="Times Roman,serif" font-size="14.00">parent=value</text>
</g>
<!-- value\n\nparent=concepts&#45;&gt;number\n\nparent=value -->
<g id="edge26" class="edge"><title>value\n\nparent=concepts&#45;&gt;number\n\nparent=value</title>
<path fill="none" stroke="black" d="M1189.42,-492.063C1176.98,-479.821 1163.15,-466.21 1150.34,-453.606"/>
<polygon fill="black" stroke="black" points="1152.51,-450.839 1142.93,-446.32 1147.61,-455.828 1152.51,-450.839"/>
</g>
<!-- color\n\nparent=value -->
<g id="node33" class="node"><title>color\n\nparent=value</title>
<ellipse fill="none" stroke="black" cx="1330" cy="-409" rx="79.196" ry="42.4264"/>
<text text-anchor="middle" x="1330" y="-422.4" font-family="Times Roman,serif" font-size="14.00">color</text>
<text text-anchor="middle" x="1330" y="-388.4" font-family="Times Roman,serif" font-size="14.00">parent=value</text>
</g>
<!-- value\n\nparent=concepts&#45;&gt;color\n\nparent=value -->
<g id="edge32" class="edge"><title>value\n\nparent=concepts&#45;&gt;color\n\nparent=value</title>
<path fill="none" stroke="black" d="M1262.07,-491.053C1271.33,-479.873 1281.47,-467.618 1291.03,-456.067"/>
<polygon fill="black" stroke="black" points="1293.86,-458.14 1297.54,-448.205 1288.47,-453.676 1293.86,-458.14"/>
</g>
<!-- number reqgrp 0 -->
<g id="node29" class="node"><title>number reqgrp 0</title>
<ellipse fill="none" stroke="black" cx="1094" cy="-287" rx="94.0452" ry="18.3848"/>
<text text-anchor="middle" x="1094" y="-283.4" font-family="Times Roman,serif" font-size="14.00">number reqgrp 0</text>
</g>
<!-- number\n\nparent=value&#45;&gt;number reqgrp 0 -->
<g id="edge28" class="edge"><title>number\n\nparent=value&#45;&gt;number reqgrp 0</title>
<path fill="none" stroke="black" d="M1101.15,-366.33C1099.65,-349.632 1097.96,-330.913 1096.6,-315.854"/>
<polygon fill="black" stroke="black" points="1100.06,-315.262 1095.68,-305.616 1093.09,-315.89 1100.06,-315.262"/>
</g>
<!-- number reqgrp 0 req 0\n\ndescriptor from concepts -->
<g id="node31" class="node"><title>number reqgrp 0 req 0\n\ndescriptor from concepts</title>
<ellipse fill="none" stroke="black" cx="1082" cy="-165" rx="130.815" ry="42.4264"/>
<text text-anchor="middle" x="1082" y="-178.4" font-family="Times Roman,serif" font-size="14.00">number reqgrp 0 req 0</text>
<text text-anchor="middle" x="1082" y="-144.4" font-family="Times Roman,serif" font-size="14.00">descriptor from concepts</text>
</g>
<!-- number reqgrp 0&#45;&gt;number reqgrp 0 req 0\n\ndescriptor from concepts -->
<g id="edge30" class="edge"><title>number reqgrp 0&#45;&gt;number reqgrp 0 req 0\n\ndescriptor from concepts</title>
<path fill="none" stroke="red" d="M1092.18,-268.471C1090.84,-254.923 1088.97,-235.827 1087.19,-217.721"/>
<polygon fill="red" stroke="red" points="1090.64,-217.126 1086.18,-207.517 1083.68,-217.812 1090.64,-217.126"/>
</g>
<!-- color reqgrp 0 -->
<g id="node35" class="node"><title>color reqgrp 0</title>
<ellipse fill="none" stroke="black" cx="1368" cy="-287" rx="79.9031" ry="18.3848"/>
<text text-anchor="middle" x="1368" y="-283.4" font-family="Times Roman,serif" font-size="14.00">color reqgrp 0</text>
</g>
<!-- color\n\nparent=value&#45;&gt;color reqgrp 0 -->
<g id="edge34" class="edge"><title>color\n\nparent=value&#45;&gt;color reqgrp 0</title>
<path fill="none" stroke="black" d="M1343.08,-367.015C1348.38,-349.99 1354.37,-330.769 1359.14,-315.434"/>
<polygon fill="black" stroke="black" points="1362.6,-316.101 1362.23,-305.513 1355.92,-314.019 1362.6,-316.101"/>
</g>
<!-- color reqgrp 0 req 0\n\ncolor from descriptor -->
<g id="node37" class="node"><title>color reqgrp 0 req 0\n\ncolor from descriptor</title>
<ellipse fill="none" stroke="black" cx="1342" cy="-165" rx="111.222" ry="42.4264"/>
<text text-anchor="middle" x="1342" y="-178.4" font-family="Times Roman,serif" font-size="14.00">color reqgrp 0 req 0</text>
<text text-anchor="middle" x="1342" y="-144.4" font-family="Times Roman,serif" font-size="14.00">color from descriptor</text>
</g>
<!-- color reqgrp 0&#45;&gt;color reqgrp 0 req 0\n\ncolor from descriptor -->
<g id="edge36" class="edge"><title>color reqgrp 0&#45;&gt;color reqgrp 0 req 0\n\ncolor from descriptor</title>
<path fill="none" stroke="red" d="M1364.05,-268.471C1361.15,-254.86 1357.06,-235.649 1353.18,-217.469"/>
<polygon fill="red" stroke="red" points="1356.57,-216.568 1351.06,-207.517 1349.72,-218.027 1356.57,-216.568"/>
</g>
<!-- color reqgrp 0 req 0\n\ncolor from value -->
<g id="node70" class="node"><title>color reqgrp 0 req 0\n\ncolor from value</title>
<ellipse fill="none" stroke="black" cx="1579" cy="-165" rx="108.187" ry="42.4264"/>
<text text-anchor="middle" x="1579" y="-178.4" font-family="Times Roman,serif" font-size="14.00">color reqgrp 0 req 0</text>
<text text-anchor="middle" x="1579" y="-144.4" font-family="Times Roman,serif" font-size="14.00">color from value</text>
</g>
<!-- color reqgrp 0&#45;&gt;color reqgrp 0 req 0\n\ncolor from value -->
<g id="edge70" class="edge"><title>color reqgrp 0&#45;&gt;color reqgrp 0 req 0\n\ncolor from value</title>
<path fill="none" stroke="red" d="M1397.78,-269.779C1426.6,-253.118 1471.34,-227.247 1509.16,-205.382"/>
<polygon fill="red" stroke="red" points="1511.2,-208.242 1518.11,-200.207 1507.7,-202.182 1511.2,-208.242"/>
</g>
<!-- place\n\nparent=descriptor -->
<g id="node41" class="node"><title>place\n\nparent=descriptor</title>
<ellipse fill="none" stroke="black" cx="1817" cy="-409" rx="101.116" ry="42.4264"/>
<text text-anchor="middle" x="1817" y="-422.4" font-family="Times Roman,serif" font-size="14.00">place</text>
<text text-anchor="middle" x="1817" y="-388.4" font-family="Times Roman,serif" font-size="14.00">parent=descriptor</text>
</g>
<!-- descriptor\n\nparent=concepts&#45;&gt;place\n\nparent=descriptor -->
<g id="edge40" class="edge"><title>descriptor\n\nparent=concepts&#45;&gt;place\n\nparent=descriptor</title>
<path fill="none" stroke="black" d="M1817,-488.33C1817,-479.836 1817,-470.818 1817,-462.025"/>
<polygon fill="black" stroke="black" points="1820.5,-461.852 1817,-451.852 1813.5,-461.852 1820.5,-461.852"/>
</g>
<!-- direction\n\nparent=descriptor -->
<g id="node47" class="node"><title>direction\n\nparent=descriptor</title>
<ellipse fill="none" stroke="black" cx="2047" cy="-409" rx="101.116" ry="42.4264"/>
<text text-anchor="middle" x="2047" y="-422.4" font-family="Times Roman,serif" font-size="14.00">direction</text>
<text text-anchor="middle" x="2047" y="-388.4" font-family="Times Roman,serif" font-size="14.00">parent=descriptor</text>
</g>
<!-- descriptor\n\nparent=concepts&#45;&gt;direction\n\nparent=descriptor -->
<g id="edge46" class="edge"><title>descriptor\n\nparent=concepts&#45;&gt;direction\n\nparent=descriptor</title>
<path fill="none" stroke="black" d="M1878.33,-498.467C1908.01,-482.726 1943.83,-463.727 1974.81,-447.292"/>
<polygon fill="black" stroke="black" points="1976.64,-450.284 1983.83,-442.506 1973.36,-444.1 1976.64,-450.284"/>
</g>
<!-- unit\n\nparent=descriptor -->
<g id="node53" class="node"><title>unit\n\nparent=descriptor</title>
<ellipse fill="none" stroke="black" cx="2316" cy="-409" rx="101.116" ry="42.4264"/>
<text text-anchor="middle" x="2316" y="-422.4" font-family="Times Roman,serif" font-size="14.00">unit</text>
<text text-anchor="middle" x="2316" y="-388.4" font-family="Times Roman,serif" font-size="14.00">parent=descriptor</text>
</g>
<!-- descriptor\n\nparent=concepts&#45;&gt;unit\n\nparent=descriptor -->
<g id="edge52" class="edge"><title>descriptor\n\nparent=concepts&#45;&gt;unit\n\nparent=descriptor</title>
<path fill="none" stroke="black" d="M1902.44,-512.039C1971.32,-496.538 2070.6,-473.712 2157,-452 2178.04,-446.711 2200.58,-440.78 2221.88,-435.052"/>
<polygon fill="black" stroke="black" points="2222.82,-438.422 2231.57,-432.437 2221,-431.664 2222.82,-438.422"/>
</g>
<!-- color\n\nparent=descriptor -->
<g id="node67" class="node"><title>color\n\nparent=descriptor</title>
<ellipse fill="none" stroke="black" cx="1574" cy="-409" rx="101.116" ry="42.4264"/>
<text text-anchor="middle" x="1574" y="-422.4" font-family="Times Roman,serif" font-size="14.00">color</text>
<text text-anchor="middle" x="1574" y="-388.4" font-family="Times Roman,serif" font-size="14.00">parent=descriptor</text>
</g>
<!-- descriptor\n\nparent=concepts&#45;&gt;color\n\nparent=descriptor -->
<g id="edge66" class="edge"><title>descriptor\n\nparent=concepts&#45;&gt;color\n\nparent=descriptor</title>
<path fill="none" stroke="black" d="M1753.79,-499.264C1721.53,-483.066 1682.08,-463.26 1648.36,-446.332"/>
<polygon fill="black" stroke="black" points="1649.52,-442.998 1639.01,-441.639 1646.38,-449.254 1649.52,-442.998"/>
</g>
<!-- place reqgrp 0 -->
<g id="node43" class="node"><title>place reqgrp 0</title>
<ellipse fill="none" stroke="black" cx="1817" cy="-287" rx="80.8184" ry="18.3848"/>
<text text-anchor="middle" x="1817" y="-283.4" font-family="Times Roman,serif" font-size="14.00">place reqgrp 0</text>
</g>
<!-- place\n\nparent=descriptor&#45;&gt;place reqgrp 0 -->
<g id="edge42" class="edge"><title>place\n\nparent=descriptor&#45;&gt;place reqgrp 0</title>
<path fill="none" stroke="black" d="M1817,-366.33C1817,-349.632 1817,-330.913 1817,-315.854"/>
<polygon fill="black" stroke="black" points="1820.5,-315.616 1817,-305.616 1813.5,-315.616 1820.5,-315.616"/>
</g>
<!-- place reqgrp 0 req 0\n\naction from concepts -->
<g id="node45" class="node"><title>place reqgrp 0 req 0\n\naction from concepts</title>
<ellipse fill="none" stroke="black" cx="1817" cy="-165" rx="111.93" ry="42.4264"/>
<text text-anchor="middle" x="1817" y="-178.4" font-family="Times Roman,serif" font-size="14.00">place reqgrp 0 req 0</text>
<text text-anchor="middle" x="1817" y="-144.4" font-family="Times Roman,serif" font-size="14.00">action from concepts</text>
</g>
<!-- place reqgrp 0&#45;&gt;place reqgrp 0 req 0\n\naction from concepts -->
<g id="edge44" class="edge"><title>place reqgrp 0&#45;&gt;place reqgrp 0 req 0\n\naction from concepts</title>
<path fill="none" stroke="red" d="M1817,-268.471C1817,-254.923 1817,-235.827 1817,-217.721"/>
<polygon fill="red" stroke="red" points="1820.5,-217.517 1817,-207.517 1813.5,-217.517 1820.5,-217.517"/>
</g>
<!-- direction reqgrp 0 -->
<g id="node49" class="node"><title>direction reqgrp 0</title>
<ellipse fill="none" stroke="black" cx="2065" cy="-287" rx="98.9949" ry="18.3848"/>
<text text-anchor="middle" x="2065" y="-283.4" font-family="Times Roman,serif" font-size="14.00">direction reqgrp 0</text>
</g>
<!-- direction\n\nparent=descriptor&#45;&gt;direction reqgrp 0 -->
<g id="edge48" class="edge"><title>direction\n\nparent=descriptor&#45;&gt;direction reqgrp 0</title>
<path fill="none" stroke="black" d="M2053.3,-366.33C2055.76,-349.632 2058.52,-330.913 2060.74,-315.854"/>
<polygon fill="black" stroke="black" points="2064.26,-316.02 2062.25,-305.616 2057.33,-314.998 2064.26,-316.02"/>
</g>
<!-- direction reqgrp 0 req 0\n\naction from concepts -->
<g id="node51" class="node"><title>direction reqgrp 0 req 0\n\naction from concepts</title>
<ellipse fill="none" stroke="black" cx="2074" cy="-165" rx="126.78" ry="42.4264"/>
<text text-anchor="middle" x="2074" y="-178.4" font-family="Times Roman,serif" font-size="14.00">direction reqgrp 0 req 0</text>
<text text-anchor="middle" x="2074" y="-144.4" font-family="Times Roman,serif" font-size="14.00">action from concepts</text>
</g>
<!-- direction reqgrp 0&#45;&gt;direction reqgrp 0 req 0\n\naction from concepts -->
<g id="edge50" class="edge"><title>direction reqgrp 0&#45;&gt;direction reqgrp 0 req 0\n\naction from concepts</title>
<path fill="none" stroke="red" d="M2066.37,-268.471C2067.37,-254.923 2068.78,-235.827 2070.11,-217.721"/>
<polygon fill="red" stroke="red" points="2073.62,-217.748 2070.86,-207.517 2066.64,-217.233 2073.62,-217.748"/>
</g>
<!-- distance\n\nparent=unit -->
<g id="node55" class="node"><title>distance\n\nparent=unit</title>
<ellipse fill="none" stroke="black" cx="2316" cy="-287" rx="72.1249" ry="42.4264"/>
<text text-anchor="middle" x="2316" y="-300.4" font-family="Times Roman,serif" font-size="14.00">distance</text>
<text text-anchor="middle" x="2316" y="-266.4" font-family="Times Roman,serif" font-size="14.00">parent=unit</text>
</g>
<!-- unit\n\nparent=descriptor&#45;&gt;distance\n\nparent=unit -->
<g id="edge54" class="edge"><title>unit\n\nparent=descriptor&#45;&gt;distance\n\nparent=unit</title>
<path fill="none" stroke="black" d="M2316,-366.33C2316,-357.836 2316,-348.818 2316,-340.025"/>
<polygon fill="black" stroke="black" points="2319.5,-339.852 2316,-329.852 2312.5,-339.852 2319.5,-339.852"/>
</g>
<!-- time\n\nparent=unit -->
<g id="node61" class="node"><title>time\n\nparent=unit</title>
<ellipse fill="none" stroke="black" cx="2501" cy="-287" rx="72.1249" ry="42.4264"/>
<text text-anchor="middle" x="2501" y="-300.4" font-family="Times Roman,serif" font-size="14.00">time</text>
<text text-anchor="middle" x="2501" y="-266.4" font-family="Times Roman,serif" font-size="14.00">parent=unit</text>
</g>
<!-- unit\n\nparent=descriptor&#45;&gt;time\n\nparent=unit -->
<g id="edge60" class="edge"><title>unit\n\nparent=descriptor&#45;&gt;time\n\nparent=unit</title>
<path fill="none" stroke="black" d="M2370.51,-373.056C2393.76,-357.719 2420.9,-339.824 2444.38,-324.338"/>
<polygon fill="black" stroke="black" points="2446.43,-327.178 2452.85,-318.75 2442.58,-321.334 2446.43,-327.178"/>
</g>
<!-- distance reqgrp 0 -->
<g id="node57" class="node"><title>distance reqgrp 0</title>
<ellipse fill="none" stroke="black" cx="2316" cy="-165" rx="96.8736" ry="18.3848"/>
<text text-anchor="middle" x="2316" y="-161.4" font-family="Times Roman,serif" font-size="14.00">distance reqgrp 0</text>
</g>
<!-- distance\n\nparent=unit&#45;&gt;distance reqgrp 0 -->
<g id="edge56" class="edge"><title>distance\n\nparent=unit&#45;&gt;distance reqgrp 0</title>
<path fill="none" stroke="black" d="M2316,-244.33C2316,-227.632 2316,-208.913 2316,-193.854"/>
<polygon fill="black" stroke="black" points="2319.5,-193.616 2316,-183.616 2312.5,-193.616 2319.5,-193.616"/>
</g>
<!-- distance reqgrp 0 req 0\n\nvalue from concepts -->
<g id="node59" class="node"><title>distance reqgrp 0 req 0\n\nvalue from concepts</title>
<ellipse fill="none" stroke="black" cx="2301" cy="-43" rx="125.158" ry="42.4264"/>
<text text-anchor="middle" x="2301" y="-56.4" font-family="Times Roman,serif" font-size="14.00">distance reqgrp 0 req 0</text>
<text text-anchor="middle" x="2301" y="-22.4" font-family="Times Roman,serif" font-size="14.00">value from concepts</text>
</g>
<!-- distance reqgrp 0&#45;&gt;distance reqgrp 0 req 0\n\nvalue from concepts -->
<g id="edge58" class="edge"><title>distance reqgrp 0&#45;&gt;distance reqgrp 0 req 0\n\nvalue from concepts</title>
<path fill="none" stroke="red" d="M2313.72,-146.471C2312.05,-132.86 2309.69,-113.649 2307.45,-95.4689"/>
<polygon fill="red" stroke="red" points="2310.92,-95.0153 2306.23,-85.5171 2303.97,-95.8695 2310.92,-95.0153"/>
</g>
<!-- time reqgrp 0 -->
<g id="node63" class="node"><title>time reqgrp 0</title>
<ellipse fill="none" stroke="black" cx="2524" cy="-165" rx="77.7817" ry="18.3848"/>
<text text-anchor="middle" x="2524" y="-161.4" font-family="Times Roman,serif" font-size="14.00">time reqgrp 0</text>
</g>
<!-- time\n\nparent=unit&#45;&gt;time reqgrp 0 -->
<g id="edge62" class="edge"><title>time\n\nparent=unit&#45;&gt;time reqgrp 0</title>
<path fill="none" stroke="black" d="M2508.98,-244.673C2512.16,-227.786 2515.75,-208.786 2518.61,-193.577"/>
<polygon fill="black" stroke="black" points="2522.06,-194.201 2520.47,-183.725 2515.18,-192.904 2522.06,-194.201"/>
</g>
<!-- time reqgrp 0 req 0\n\nvalue from concepts -->
<g id="node65" class="node"><title>time reqgrp 0 req 0\n\nvalue from concepts</title>
<ellipse fill="none" stroke="black" cx="2553" cy="-43" rx="109.101" ry="42.4264"/>
<text text-anchor="middle" x="2553" y="-56.4" font-family="Times Roman,serif" font-size="14.00">time reqgrp 0 req 0</text>
<text text-anchor="middle" x="2553" y="-22.4" font-family="Times Roman,serif" font-size="14.00">value from concepts</text>
</g>
<!-- time reqgrp 0&#45;&gt;time reqgrp 0 req 0\n\nvalue from concepts -->
<g id="edge64" class="edge"><title>time reqgrp 0&#45;&gt;time reqgrp 0 req 0\n\nvalue from concepts</title>
<path fill="none" stroke="red" d="M2528.4,-146.471C2531.64,-132.86 2536.21,-113.649 2540.53,-95.4689"/>
<polygon fill="red" stroke="red" points="2543.99,-96.0555 2542.89,-85.5171 2537.18,-94.4366 2543.99,-96.0555"/>
</g>
<!-- color\n\nparent=descriptor&#45;&gt;color reqgrp 0 -->
<g id="edge68" class="edge"><title>color\n\nparent=descriptor&#45;&gt;color reqgrp 0</title>
<path fill="none" stroke="black" d="M1515.24,-374.203C1480.07,-353.37 1436.39,-327.502 1405.77,-309.371"/>
<polygon fill="black" stroke="black" points="1407.5,-306.325 1397.11,-304.24 1403.93,-312.348 1407.5,-306.325"/>
</g>
</g>
</svg>
