<?xml version="1.0" encoding="UTF-8" standalone="no"?>
<!DOCTYPE svg PUBLIC "-//W3C//DTD SVG 1.1//EN"
 "http://www.w3.org/Graphics/SVG/1.1/DTD/svg11.dtd">
<!-- Generated by graphviz version 2.26.3 (20100126.1600)
 -->
<!-- Title: web Pages: 1 -->
<svg width="2896pt" height="626pt"
 viewBox="0.00 0.00 2896.00 626.00" xmlns="http://www.w3.org/2000/svg" xmlns:xlink="http://www.w3.org/1999/xlink">
<g id="graph1" class="graph" transform="scale(1 1) rotate(0) translate(4 622)">
<title>web</title>
<polygon fill="white" stroke="white" points="-4,5 -4,-622 2893,-622 2893,5 -4,5"/>
<!-- \nconcepts\n -->
<g id="node1" class="node"><title>\nconcepts\n</title>
<ellipse fill="none" stroke="black" cx="1096" cy="-588" rx="53.9477" ry="29.6985"/>
<text text-anchor="middle" x="1096" y="-576.4" font-family="Times Roman,serif" font-size="14.00">concepts</text>
</g>
<!-- \nna\n -->
<g id="node3" class="node"><title>\nna\n</title>
<ellipse fill="none" stroke="black" cx="910" cy="-492" rx="27" ry="29.6985"/>
<text text-anchor="middle" x="910" y="-480.4" font-family="Times Roman,serif" font-size="14.00">na</text>
</g>
<!-- \nconcepts\n&#45;&gt;\nna\n -->
<g id="edge2" class="edge"><title>\nconcepts\n&#45;&gt;\nna\n</title>
<path fill="none" stroke="black" d="M1050.71,-571.91C1020.06,-560.113 979.256,-542.602 946,-522 943.761,-520.613 941.512,-519.097 939.293,-517.507"/>
<polygon fill="black" stroke="black" points="941.022,-514.423 930.955,-511.122 936.766,-519.98 941.022,-514.423"/>
</g>
<!-- \nobject\n -->
<g id="node5" class="node"><title>\nobject\n</title>
<ellipse fill="none" stroke="blue" cx="996" cy="-492" rx="41.0122" ry="29.6985"/>
<text text-anchor="middle" x="996" y="-480.4" font-family="Times Roman,serif" font-size="14.00">object</text>
</g>
<!-- \nconcepts\n&#45;&gt;\nobject\n -->
<g id="edge4" class="edge"><title>\nconcepts\n&#45;&gt;\nobject\n</title>
<path fill="none" stroke="black" d="M1069.2,-562.274C1056.63,-550.203 1041.54,-535.716 1028.33,-523.041"/>
<polygon fill="black" stroke="black" points="1030.45,-520.219 1020.81,-515.819 1025.6,-525.269 1030.45,-520.219"/>
</g>
<!-- \naction\n -->
<g id="node13" class="node"><title>\naction\n</title>
<ellipse fill="none" stroke="black" cx="1096" cy="-492" rx="41.2167" ry="29.6985"/>
<text text-anchor="middle" x="1096" y="-480.4" font-family="Times Roman,serif" font-size="14.00">action</text>
</g>
<!-- \nconcepts\n&#45;&gt;\naction\n -->
<g id="edge12" class="edge"><title>\nconcepts\n&#45;&gt;\naction\n</title>
<path fill="none" stroke="black" d="M1096,-558.414C1096,-550.019 1096,-540.739 1096,-531.843"/>
<polygon fill="black" stroke="black" points="1099.5,-531.654 1096,-521.654 1092.5,-531.654 1099.5,-531.654"/>
</g>
<!-- \nvalue\n -->
<g id="node39" class="node"><title>\nvalue\n</title>
<ellipse fill="none" stroke="black" cx="1308" cy="-492" rx="38.1838" ry="29.6985"/>
<text text-anchor="middle" x="1308" y="-480.4" font-family="Times Roman,serif" font-size="14.00">value</text>
</g>
<!-- \nconcepts\n&#45;&gt;\nvalue\n -->
<g id="edge38" class="edge"><title>\nconcepts\n&#45;&gt;\nvalue\n</title>
<path fill="none" stroke="black" d="M1137.63,-569.148C1174.6,-552.406 1228.39,-528.05 1265.59,-511.203"/>
<polygon fill="black" stroke="black" points="1267.48,-514.19 1275.15,-506.877 1264.59,-507.814 1267.48,-514.19"/>
</g>
<!-- \ndescriptor\n -->
<g id="node53" class="node"><title>\ndescriptor\n</title>
<ellipse fill="none" stroke="black" cx="2043" cy="-492" rx="60.1041" ry="29.6985"/>
<text text-anchor="middle" x="2043" y="-480.4" font-family="Times Roman,serif" font-size="14.00">descriptor</text>
</g>
<!-- \nconcepts\n&#45;&gt;\ndescriptor\n -->
<g id="edge52" class="edge"><title>\nconcepts\n&#45;&gt;\ndescriptor\n</title>
<path fill="none" stroke="black" d="M1149.29,-582.598C1310.61,-566.245 1793.68,-517.274 1974.06,-498.988"/>
<polygon fill="black" stroke="black" points="1974.63,-502.449 1984.22,-497.959 1973.92,-495.485 1974.63,-502.449"/>
</g>
<!-- object reqgrp 0 -->
<g id="node6" class="node"><title>object reqgrp 0</title>
<ellipse fill="none" stroke="red" cx="808" cy="-396" rx="85.0596" ry="18.3848"/>
<text text-anchor="middle" x="808" y="-392.4" font-family="Times Roman,serif" font-size="14.00">object reqgrp 0</text>
</g>
<!-- \nobject\n&#45;&gt;object reqgrp 0 -->
<g id="edge6" class="edge"><title>\nobject\n&#45;&gt;object reqgrp 0</title>
<path fill="none" stroke="blue" d="M964.787,-472.658C958.621,-469.011 952.152,-465.307 946,-462 916.078,-445.914 881.603,-429.425 854.596,-416.952"/>
<polygon fill="blue" stroke="blue" points="855.923,-413.71 845.375,-412.715 853,-420.07 855.923,-413.71"/>
</g>
<!-- object reqgrp 0 req 0\n\ncolor from descriptor -->
<g id="node8" class="node"><title>object reqgrp 0 req 0\n\ncolor from descriptor</title>
<ellipse fill="none" stroke="green" cx="562" cy="-287" rx="113.844" ry="42.4264"/>
<text text-anchor="middle" x="562" y="-300.4" font-family="Times Roman,serif" font-size="14.00">object reqgrp 0 req 0</text>
<text text-anchor="middle" x="562" y="-266.4" font-family="Times Roman,serif" font-size="14.00">color from descriptor</text>
</g>
<!-- object reqgrp 0&#45;&gt;object reqgrp 0 req 0\n\ncolor from descriptor -->
<g id="edge8" class="edge"><title>object reqgrp 0&#45;&gt;object reqgrp 0 req 0\n\ncolor from descriptor</title>
<path fill="none" stroke="red" d="M770.37,-379.327C737.078,-364.575 687.322,-342.529 644.779,-323.678"/>
<polygon fill="red" stroke="red" points="646.1,-320.436 635.54,-319.585 643.264,-326.836 646.1,-320.436"/>
</g>
<!-- object reqgrp 0 req 1\n\ncolor from value -->
<g id="node10" class="node"><title>object reqgrp 0 req 1\n\ncolor from value</title>
<ellipse fill="none" stroke="green" cx="808" cy="-287" rx="113.844" ry="42.4264"/>
<text text-anchor="middle" x="808" y="-300.4" font-family="Times Roman,serif" font-size="14.00">object reqgrp 0 req 1</text>
<text text-anchor="middle" x="808" y="-266.4" font-family="Times Roman,serif" font-size="14.00">color from value</text>
</g>
<!-- object reqgrp 0&#45;&gt;object reqgrp 0 req 1\n\ncolor from value -->
<g id="edge10" class="edge"><title>object reqgrp 0&#45;&gt;object reqgrp 0 req 1\n\ncolor from value</title>
<path fill="none" stroke="red" d="M808,-377.014C808,-366.612 808,-353.154 808,-339.829"/>
<polygon fill="red" stroke="red" points="811.5,-339.718 808,-329.718 804.5,-339.718 811.5,-339.718"/>
</g>
<!-- \nmovement\n -->
<g id="node15" class="node"><title>\nmovement\n</title>
<ellipse fill="none" stroke="black" cx="1038" cy="-396" rx="63.1385" ry="29.6985"/>
<text text-anchor="middle" x="1038" y="-384.4" font-family="Times Roman,serif" font-size="14.00">movement</text>
</g>
<!-- \naction\n&#45;&gt;\nmovement\n -->
<g id="edge14" class="edge"><title>\naction\n&#45;&gt;\nmovement\n</title>
<path fill="none" stroke="black" d="M1079.53,-464.747C1073.62,-454.96 1066.85,-443.747 1060.51,-433.256"/>
<polygon fill="black" stroke="black" points="1063.48,-431.41 1055.32,-424.661 1057.49,-435.03 1063.48,-431.41"/>
</g>
<!-- \ntravel\n -->
<g id="node17" class="node"><title>\ntravel\n</title>
<ellipse fill="none" stroke="blue" cx="980" cy="-287" rx="39.8075" ry="29.6985"/>
<text text-anchor="middle" x="980" y="-275.4" font-family="Times Roman,serif" font-size="14.00">travel</text>
</g>
<!-- \nmovement\n&#45;&gt;\ntravel\n -->
<g id="edge16" class="edge"><title>\nmovement\n&#45;&gt;\ntravel\n</title>
<path fill="none" stroke="black" d="M1022.76,-367.362C1015.66,-354.012 1007.12,-337.968 999.548,-323.738"/>
<polygon fill="black" stroke="black" points="1002.52,-321.879 994.737,-314.695 996.344,-325.167 1002.52,-321.879"/>
</g>
<!-- travel reqgrp 0 -->
<g id="node18" class="node"><title>travel reqgrp 0</title>
<ellipse fill="none" stroke="red" cx="275" cy="-165" rx="84.8528" ry="18.3848"/>
<text text-anchor="middle" x="275" y="-161.4" font-family="Times Roman,serif" font-size="14.00">travel reqgrp 0</text>
</g>
<!-- \ntravel\n&#45;&gt;travel reqgrp 0 -->
<g id="edge18" class="edge"><title>\ntravel\n&#45;&gt;travel reqgrp 0</title>
<path fill="none" stroke="blue" d="M957.716,-262.169C949.983,-255.1 940.779,-248.19 931,-244 848.558,-208.677 617.951,-219.494 529,-208 468.08,-200.128 399.418,-188.326 348.856,-179.076"/>
<polygon fill="blue" stroke="blue" points="349.46,-175.629 338.992,-177.263 348.194,-182.514 349.46,-175.629"/>
</g>
<!-- travel reqgrp 1 -->
<g id="node22" class="node"><title>travel reqgrp 1</title>
<ellipse fill="none" stroke="red" cx="623" cy="-165" rx="84.8528" ry="18.3848"/>
<text text-anchor="middle" x="623" y="-161.4" font-family="Times Roman,serif" font-size="14.00">travel reqgrp 1</text>
</g>
<!-- \ntravel\n&#45;&gt;travel reqgrp 1 -->
<g id="edge22" class="edge"><title>\ntravel\n&#45;&gt;travel reqgrp 1</title>
<path fill="none" stroke="blue" d="M956.774,-262.653C949.127,-255.781 940.208,-248.861 931,-244 929.629,-243.276 778.316,-204.616 688.314,-181.654"/>
<polygon fill="blue" stroke="blue" points="689.017,-178.221 678.462,-179.14 687.286,-185.004 689.017,-178.221"/>
</g>
<!-- travel reqgrp 2 -->
<g id="node28" class="node"><title>travel reqgrp 2</title>
<ellipse fill="none" stroke="red" cx="886" cy="-165" rx="84.8528" ry="18.3848"/>
<text text-anchor="middle" x="886" y="-161.4" font-family="Times Roman,serif" font-size="14.00">travel reqgrp 2</text>
</g>
<!-- \ntravel\n&#45;&gt;travel reqgrp 2 -->
<g id="edge28" class="edge"><title>\ntravel\n&#45;&gt;travel reqgrp 2</title>
<path fill="none" stroke="blue" d="M960.065,-261.127C944.245,-240.594 922.218,-212.007 906.303,-191.35"/>
<polygon fill="blue" stroke="blue" points="908.98,-189.091 900.105,-183.306 903.435,-193.364 908.98,-189.091"/>
</g>
<!-- travel reqgrp 3 -->
<g id="node34" class="node"><title>travel reqgrp 3</title>
<ellipse fill="none" stroke="red" cx="1074" cy="-165" rx="84.8528" ry="18.3848"/>
<text text-anchor="middle" x="1074" y="-161.4" font-family="Times Roman,serif" font-size="14.00">travel reqgrp 3</text>
</g>
<!-- \ntravel\n&#45;&gt;travel reqgrp 3 -->
<g id="edge34" class="edge"><title>\ntravel\n&#45;&gt;travel reqgrp 3</title>
<path fill="none" stroke="blue" d="M999.935,-261.127C1015.76,-240.594 1037.78,-212.007 1053.7,-191.35"/>
<polygon fill="blue" stroke="blue" points="1056.56,-193.364 1059.9,-183.306 1051.02,-189.091 1056.56,-193.364"/>
</g>
<!-- travel reqgrp 0 req 0\n\nplace from descriptor -->
<g id="node20" class="node"><title>travel reqgrp 0 req 0\n\nplace from descriptor</title>
<ellipse fill="none" stroke="green" cx="114" cy="-43" rx="113.844" ry="42.4264"/>
<text text-anchor="middle" x="114" y="-56.4" font-family="Times Roman,serif" font-size="14.00">travel reqgrp 0 req 0</text>
<text text-anchor="middle" x="114" y="-22.4" font-family="Times Roman,serif" font-size="14.00">place from descriptor</text>
</g>
<!-- travel reqgrp 0&#45;&gt;travel reqgrp 0 req 0\n\nplace from descriptor -->
<g id="edge20" class="edge"><title>travel reqgrp 0&#45;&gt;travel reqgrp 0 req 0\n\nplace from descriptor</title>
<path fill="none" stroke="red" d="M251.244,-146.998C230.634,-131.381 199.927,-108.112 172.781,-87.5421"/>
<polygon fill="red" stroke="red" points="174.57,-84.5064 164.486,-81.2564 170.342,-90.0855 174.57,-84.5064"/>
</g>
<!-- travel reqgrp 1 req 0\n\ndistance from unit -->
<g id="node24" class="node"><title>travel reqgrp 1 req 0\n\ndistance from unit</title>
<ellipse fill="none" stroke="green" cx="360" cy="-43" rx="113.844" ry="42.4264"/>
<text text-anchor="middle" x="360" y="-56.4" font-family="Times Roman,serif" font-size="14.00">travel reqgrp 1 req 0</text>
<text text-anchor="middle" x="360" y="-22.4" font-family="Times Roman,serif" font-size="14.00">distance from unit</text>
</g>
<!-- travel reqgrp 1&#45;&gt;travel reqgrp 1 req 0\n\ndistance from unit -->
<g id="edge24" class="edge"><title>travel reqgrp 1&#45;&gt;travel reqgrp 1 req 0\n\ndistance from unit</title>
<path fill="none" stroke="red" d="M586.707,-148.165C549.243,-130.786 489.558,-103.099 440.83,-80.4954"/>
<polygon fill="red" stroke="red" points="442.099,-77.2257 431.554,-76.1926 439.153,-83.5757 442.099,-77.2257"/>
</g>
<!-- travel reqgrp 1 req 1\n\ndirection from descriptor -->
<g id="node26" class="node"><title>travel reqgrp 1 req 1\n\ndirection from descriptor</title>
<ellipse fill="none" stroke="green" cx="623" cy="-43" rx="130.815" ry="42.4264"/>
<text text-anchor="middle" x="623" y="-56.4" font-family="Times Roman,serif" font-size="14.00">travel reqgrp 1 req 1</text>
<text text-anchor="middle" x="623" y="-22.4" font-family="Times Roman,serif" font-size="14.00">direction from descriptor</text>
</g>
<!-- travel reqgrp 1&#45;&gt;travel reqgrp 1 req 1\n\ndirection from descriptor -->
<g id="edge26" class="edge"><title>travel reqgrp 1&#45;&gt;travel reqgrp 1 req 1\n\ndirection from descriptor</title>
<path fill="none" stroke="red" d="M623,-146.471C623,-132.923 623,-113.827 623,-95.7215"/>
<polygon fill="red" stroke="red" points="626.5,-95.5171 623,-85.5171 619.5,-95.5172 626.5,-95.5171"/>
</g>
<!-- travel reqgrp 2 req 0\n\ntime from unit -->
<g id="node30" class="node"><title>travel reqgrp 2 req 0\n\ntime from unit</title>
<ellipse fill="none" stroke="green" cx="886" cy="-43" rx="113.844" ry="42.4264"/>
<text text-anchor="middle" x="886" y="-56.4" font-family="Times Roman,serif" font-size="14.00">travel reqgrp 2 req 0</text>
<text text-anchor="middle" x="886" y="-22.4" font-family="Times Roman,serif" font-size="14.00">time from unit</text>
</g>
<!-- travel reqgrp 2&#45;&gt;travel reqgrp 2 req 0\n\ntime from unit -->
<g id="edge30" class="edge"><title>travel reqgrp 2&#45;&gt;travel reqgrp 2 req 0\n\ntime from unit</title>
<path fill="none" stroke="red" d="M886,-146.471C886,-132.923 886,-113.827 886,-95.7215"/>
<polygon fill="red" stroke="red" points="889.5,-95.5171 886,-85.5171 882.5,-95.5172 889.5,-95.5171"/>
</g>
<!-- travel reqgrp 2 req 1\n\ndirection from descriptor -->
<g id="node32" class="node"><title>travel reqgrp 2 req 1\n\ndirection from descriptor</title>
<ellipse fill="none" stroke="green" cx="1149" cy="-43" rx="130.815" ry="42.4264"/>
<text text-anchor="middle" x="1149" y="-56.4" font-family="Times Roman,serif" font-size="14.00">travel reqgrp 2 req 1</text>
<text text-anchor="middle" x="1149" y="-22.4" font-family="Times Roman,serif" font-size="14.00">direction from descriptor</text>
</g>
<!-- travel reqgrp 2&#45;&gt;travel reqgrp 2 req 1\n\ndirection from descriptor -->
<g id="edge32" class="edge"><title>travel reqgrp 2&#45;&gt;travel reqgrp 2 req 1\n\ndirection from descriptor</title>
<path fill="none" stroke="red" d="M922.293,-148.165C958.83,-131.216 1016.5,-104.462 1064.53,-82.1818"/>
<polygon fill="red" stroke="red" points="1066.09,-85.3167 1073.69,-77.9335 1063.15,-78.9666 1066.09,-85.3167"/>
</g>
<!-- travel reqgrp 3 req 0\n\nobject from concepts -->
<g id="node36" class="node"><title>travel reqgrp 3 req 0\n\nobject from concepts</title>
<ellipse fill="none" stroke="green" cx="1412" cy="-43" rx="113.844" ry="42.4264"/>
<text text-anchor="middle" x="1412" y="-56.4" font-family="Times Roman,serif" font-size="14.00">travel reqgrp 3 req 0</text>
<text text-anchor="middle" x="1412" y="-22.4" font-family="Times Roman,serif" font-size="14.00">object from concepts</text>
</g>
<!-- travel reqgrp 3&#45;&gt;travel reqgrp 3 req 0\n\nobject from concepts -->
<g id="edge36" class="edge"><title>travel reqgrp 3&#45;&gt;travel reqgrp 3 req 0\n\nobject from concepts</title>
<path fill="none" stroke="red" d="M1108.33,-147.895C1125.92,-139.489 1147.84,-129.568 1168,-122 1220.53,-102.282 1235.61,-103.263 1289,-86 1299.05,-82.7495 1309.53,-79.2538 1319.95,-75.7106"/>
<polygon fill="red" stroke="red" points="1321.15,-78.9981 1329.48,-72.449 1318.88,-72.375 1321.15,-78.9981"/>
</g>
<!-- \nnumber\n -->
<g id="node41" class="node"><title>\nnumber\n</title>
<ellipse fill="none" stroke="blue" cx="1308" cy="-396" rx="48.9975" ry="29.6985"/>
<text text-anchor="middle" x="1308" y="-384.4" font-family="Times Roman,serif" font-size="14.00">number</text>
</g>
<!-- \nvalue\n&#45;&gt;\nnumber\n -->
<g id="edge40" class="edge"><title>\nvalue\n&#45;&gt;\nnumber\n</title>
<path fill="none" stroke="black" d="M1308,-462.414C1308,-454.019 1308,-444.739 1308,-435.843"/>
<polygon fill="black" stroke="black" points="1311.5,-435.654 1308,-425.654 1304.5,-435.654 1311.5,-435.654"/>
</g>
<!-- \ncolor\n -->
<g id="node47" class="node"><title>\ncolor\n</title>
<ellipse fill="none" stroke="blue" cx="1687" cy="-396" rx="34.8574" ry="29.6985"/>
<text text-anchor="middle" x="1687" y="-384.4" font-family="Times Roman,serif" font-size="14.00">color</text>
</g>
<!-- \nvalue\n&#45;&gt;\ncolor\n -->
<g id="edge46" class="edge"><title>\nvalue\n&#45;&gt;\ncolor\n</title>
<path fill="none" stroke="black" d="M1344.34,-482.795C1414.32,-465.068 1567.55,-426.256 1643.1,-407.119"/>
<polygon fill="black" stroke="black" points="1644.4,-410.402 1653.23,-404.553 1642.68,-403.616 1644.4,-410.402"/>
</g>
<!-- number reqgrp 0 -->
<g id="node42" class="node"><title>number reqgrp 0</title>
<ellipse fill="none" stroke="red" cx="1308" cy="-287" rx="94.0452" ry="18.3848"/>
<text text-anchor="middle" x="1308" y="-283.4" font-family="Times Roman,serif" font-size="14.00">number reqgrp 0</text>
</g>
<!-- \nnumber\n&#45;&gt;number reqgrp 0 -->
<g id="edge42" class="edge"><title>\nnumber\n&#45;&gt;number reqgrp 0</title>
<path fill="none" stroke="blue" d="M1308,-366.215C1308,-350.544 1308,-331.413 1308,-315.878"/>
<polygon fill="blue" stroke="blue" points="1311.5,-315.784 1308,-305.784 1304.5,-315.784 1311.5,-315.784"/>
</g>
<!-- number reqgrp 0 req 0\n\ndescriptor from concepts -->
<g id="node44" class="node"><title>number reqgrp 0 req 0\n\ndescriptor from concepts</title>
<ellipse fill="none" stroke="green" cx="1308" cy="-165" rx="130.815" ry="42.4264"/>
<text text-anchor="middle" x="1308" y="-178.4" font-family="Times Roman,serif" font-size="14.00">number reqgrp 0 req 0</text>
<text text-anchor="middle" x="1308" y="-144.4" font-family="Times Roman,serif" font-size="14.00">descriptor from concepts</text>
</g>
<!-- number reqgrp 0&#45;&gt;number reqgrp 0 req 0\n\ndescriptor from concepts -->
<g id="edge44" class="edge"><title>number reqgrp 0&#45;&gt;number reqgrp 0 req 0\n\ndescriptor from concepts</title>
<path fill="none" stroke="red" d="M1308,-268.471C1308,-254.923 1308,-235.827 1308,-217.721"/>
<polygon fill="red" stroke="red" points="1311.5,-217.517 1308,-207.517 1304.5,-217.517 1311.5,-217.517"/>
</g>
<!-- color reqgrp 0 -->
<g id="node48" class="node"><title>color reqgrp 0</title>
<ellipse fill="none" stroke="red" cx="1687" cy="-287" rx="79.9031" ry="18.3848"/>
<text text-anchor="middle" x="1687" y="-283.4" font-family="Times Roman,serif" font-size="14.00">color reqgrp 0</text>
</g>
<!-- \ncolor\n&#45;&gt;color reqgrp 0 -->
<g id="edge48" class="edge"><title>\ncolor\n&#45;&gt;color reqgrp 0</title>
<path fill="none" stroke="blue" d="M1680.94,-366.79C1680.01,-351.009 1680.02,-331.593 1680.96,-315.866"/>
<polygon fill="blue" stroke="blue" points="1684.47,-315.9 1681.77,-305.656 1677.49,-315.351 1684.47,-315.9"/>
</g>
<!-- \ncolor\n&#45;&gt;color reqgrp 0 -->
<g id="edge82" class="edge"><title>\ncolor\n&#45;&gt;color reqgrp 0</title>
<path fill="none" stroke="blue" d="M1693.06,-366.79C1693.99,-351.009 1693.98,-331.593 1693.04,-315.866"/>
<polygon fill="blue" stroke="blue" points="1696.51,-315.351 1692.23,-305.656 1689.53,-315.9 1696.51,-315.351"/>
</g>
<!-- color reqgrp 0 req 0\n\ncolor from descriptor -->
<g id="node50" class="node"><title>color reqgrp 0 req 0\n\ncolor from descriptor</title>
<ellipse fill="none" stroke="green" cx="1568" cy="-165" rx="111.222" ry="42.4264"/>
<text text-anchor="middle" x="1568" y="-178.4" font-family="Times Roman,serif" font-size="14.00">color reqgrp 0 req 0</text>
<text text-anchor="middle" x="1568" y="-144.4" font-family="Times Roman,serif" font-size="14.00">color from descriptor</text>
</g>
<!-- color reqgrp 0&#45;&gt;color reqgrp 0 req 0\n\ncolor from descriptor -->
<g id="edge50" class="edge"><title>color reqgrp 0&#45;&gt;color reqgrp 0 req 0\n\ncolor from descriptor</title>
<path fill="none" stroke="red" d="M1669.18,-268.735C1654.57,-253.757 1633.23,-231.871 1613.9,-212.058"/>
<polygon fill="red" stroke="red" points="1616.38,-209.584 1606.89,-204.869 1611.37,-214.471 1616.38,-209.584"/>
</g>
<!-- color reqgrp 0 req 0\n\ncolor from value -->
<g id="node82" class="node"><title>color reqgrp 0 req 0\n\ncolor from value</title>
<ellipse fill="none" stroke="green" cx="1805" cy="-165" rx="108.187" ry="42.4264"/>
<text text-anchor="middle" x="1805" y="-178.4" font-family="Times Roman,serif" font-size="14.00">color reqgrp 0 req 0</text>
<text text-anchor="middle" x="1805" y="-144.4" font-family="Times Roman,serif" font-size="14.00">color from value</text>
</g>
<!-- color reqgrp 0&#45;&gt;color reqgrp 0 req 0\n\ncolor from value -->
<g id="edge84" class="edge"><title>color reqgrp 0&#45;&gt;color reqgrp 0 req 0\n\ncolor from value</title>
<path fill="none" stroke="red" d="M1704.67,-268.735C1719.15,-253.757 1740.32,-231.871 1759.48,-212.058"/>
<polygon fill="red" stroke="red" points="1762,-214.49 1766.44,-204.869 1756.97,-209.624 1762,-214.49"/>
</g>
<!-- \ndescriptor\n&#45;&gt;\ncolor\n -->
<g id="edge80" class="edge"><title>\ndescriptor\n&#45;&gt;\ncolor\n</title>
<path fill="none" stroke="black" d="M1990.09,-477.731C1919.49,-458.693 1795.8,-425.339 1730.39,-407.701"/>
<polygon fill="black" stroke="black" points="1730.98,-404.234 1720.41,-405.01 1729.16,-410.993 1730.98,-404.234"/>
</g>
<!-- \nplace\n -->
<g id="node55" class="node"><title>\nplace\n</title>
<ellipse fill="none" stroke="blue" cx="2043" cy="-396" rx="36.7696" ry="29.6985"/>
<text text-anchor="middle" x="2043" y="-384.4" font-family="Times Roman,serif" font-size="14.00">place</text>
</g>
<!-- \ndescriptor\n&#45;&gt;\nplace\n -->
<g id="edge54" class="edge"><title>\ndescriptor\n&#45;&gt;\nplace\n</title>
<path fill="none" stroke="black" d="M2043,-462.414C2043,-454.019 2043,-444.739 2043,-435.843"/>
<polygon fill="black" stroke="black" points="2046.5,-435.654 2043,-425.654 2039.5,-435.654 2046.5,-435.654"/>
</g>
<!-- \ndirection\n -->
<g id="node61" class="node"><title>\ndirection\n</title>
<ellipse fill="none" stroke="blue" cx="2212" cy="-396" rx="53.9477" ry="29.6985"/>
<text text-anchor="middle" x="2212" y="-384.4" font-family="Times Roman,serif" font-size="14.00">direction</text>
</g>
<!-- \ndescriptor\n&#45;&gt;\ndirection\n -->
<g id="edge60" class="edge"><title>\ndescriptor\n&#45;&gt;\ndirection\n</title>
<path fill="none" stroke="black" d="M2082.62,-469.492C2107.41,-455.413 2139.45,-437.212 2165.44,-422.446"/>
<polygon fill="black" stroke="black" points="2167.4,-425.361 2174.37,-417.378 2163.94,-419.274 2167.4,-425.361"/>
</g>
<!-- \nunit\n -->
<g id="node67" class="node"><title>\nunit\n</title>
<ellipse fill="none" stroke="black" cx="2542" cy="-396" rx="31.1127" ry="29.6985"/>
<text text-anchor="middle" x="2542" y="-384.4" font-family="Times Roman,serif" font-size="14.00">unit</text>
</g>
<!-- \ndescriptor\n&#45;&gt;\nunit\n -->
<g id="edge66" class="edge"><title>\ndescriptor\n&#45;&gt;\nunit\n</title>
<path fill="none" stroke="black" d="M2099.27,-481.174C2200.9,-461.623 2412.73,-420.87 2501.49,-403.793"/>
<polygon fill="black" stroke="black" points="2502.29,-407.205 2511.44,-401.879 2500.96,-400.331 2502.29,-407.205"/>
</g>
<!-- place reqgrp 0 -->
<g id="node56" class="node"><title>place reqgrp 0</title>
<ellipse fill="none" stroke="red" cx="2043" cy="-287" rx="80.8184" ry="18.3848"/>
<text text-anchor="middle" x="2043" y="-283.4" font-family="Times Roman,serif" font-size="14.00">place reqgrp 0</text>
</g>
<!-- \nplace\n&#45;&gt;place reqgrp 0 -->
<g id="edge56" class="edge"><title>\nplace\n&#45;&gt;place reqgrp 0</title>
<path fill="none" stroke="blue" d="M2043,-366.215C2043,-350.544 2043,-331.413 2043,-315.878"/>
<polygon fill="blue" stroke="blue" points="2046.5,-315.784 2043,-305.784 2039.5,-315.784 2046.5,-315.784"/>
</g>
<!-- place reqgrp 0 req 0\n\naction from concepts -->
<g id="node58" class="node"><title>place reqgrp 0 req 0\n\naction from concepts</title>
<ellipse fill="none" stroke="green" cx="2043" cy="-165" rx="111.93" ry="42.4264"/>
<text text-anchor="middle" x="2043" y="-178.4" font-family="Times Roman,serif" font-size="14.00">place reqgrp 0 req 0</text>
<text text-anchor="middle" x="2043" y="-144.4" font-family="Times Roman,serif" font-size="14.00">action from concepts</text>
</g>
<!-- place reqgrp 0&#45;&gt;place reqgrp 0 req 0\n\naction from concepts -->
<g id="edge58" class="edge"><title>place reqgrp 0&#45;&gt;place reqgrp 0 req 0\n\naction from concepts</title>
<path fill="none" stroke="red" d="M2043,-268.471C2043,-254.923 2043,-235.827 2043,-217.721"/>
<polygon fill="red" stroke="red" points="2046.5,-217.517 2043,-207.517 2039.5,-217.517 2046.5,-217.517"/>
</g>
<!-- direction reqgrp 0 -->
<g id="node62" class="node"><title>direction reqgrp 0</title>
<ellipse fill="none" stroke="red" cx="2271" cy="-287" rx="98.9949" ry="18.3848"/>
<text text-anchor="middle" x="2271" y="-283.4" font-family="Times Roman,serif" font-size="14.00">direction reqgrp 0</text>
</g>
<!-- \ndirection\n&#45;&gt;direction reqgrp 0 -->
<g id="edge62" class="edge"><title>\ndirection\n&#45;&gt;direction reqgrp 0</title>
<path fill="none" stroke="blue" d="M2227.35,-367.646C2236.2,-351.3 2247.27,-330.841 2256.05,-314.62"/>
<polygon fill="blue" stroke="blue" points="2259.24,-316.083 2260.92,-305.623 2253.08,-312.751 2259.24,-316.083"/>
</g>
<!-- direction reqgrp 0 req 0\n\naction from concepts -->
<g id="node64" class="node"><title>direction reqgrp 0 req 0\n\naction from concepts</title>
<ellipse fill="none" stroke="green" cx="2300" cy="-165" rx="126.78" ry="42.4264"/>
<text text-anchor="middle" x="2300" y="-178.4" font-family="Times Roman,serif" font-size="14.00">direction reqgrp 0 req 0</text>
<text text-anchor="middle" x="2300" y="-144.4" font-family="Times Roman,serif" font-size="14.00">action from concepts</text>
</g>
<!-- direction reqgrp 0&#45;&gt;direction reqgrp 0 req 0\n\naction from concepts -->
<g id="edge64" class="edge"><title>direction reqgrp 0&#45;&gt;direction reqgrp 0 req 0\n\naction from concepts</title>
<path fill="none" stroke="red" d="M2275.4,-268.471C2278.64,-254.86 2283.21,-235.649 2287.53,-217.469"/>
<polygon fill="red" stroke="red" points="2290.99,-218.055 2289.89,-207.517 2284.18,-216.437 2290.99,-218.055"/>
</g>
<!-- \ndistance\n -->
<g id="node69" class="node"><title>\ndistance\n</title>
<ellipse fill="none" stroke="blue" cx="2542" cy="-287" rx="51.8276" ry="29.6985"/>
<text text-anchor="middle" x="2542" y="-275.4" font-family="Times Roman,serif" font-size="14.00">distance</text>
</g>
<!-- \nunit\n&#45;&gt;\ndistance\n -->
<g id="edge68" class="edge"><title>\nunit\n&#45;&gt;\ndistance\n</title>
<path fill="none" stroke="black" d="M2542,-366.215C2542,-354.079 2542,-339.869 2542,-326.861"/>
<polygon fill="black" stroke="black" points="2545.5,-326.749 2542,-316.749 2538.5,-326.749 2545.5,-326.749"/>
</g>
<!-- \ntime\n -->
<g id="node75" class="node"><title>\ntime\n</title>
<ellipse fill="none" stroke="blue" cx="2697" cy="-287" rx="33.234" ry="29.6985"/>
<text text-anchor="middle" x="2697" y="-275.4" font-family="Times Roman,serif" font-size="14.00">time</text>
</g>
<!-- \nunit\n&#45;&gt;\ntime\n -->
<g id="edge74" class="edge"><title>\nunit\n&#45;&gt;\ntime\n</title>
<path fill="none" stroke="black" d="M2567.25,-378.245C2593.14,-360.04 2633.58,-331.596 2662.43,-311.308"/>
<polygon fill="black" stroke="black" points="2664.82,-313.909 2670.99,-305.294 2660.79,-308.183 2664.82,-313.909"/>
</g>
<!-- distance reqgrp 0 -->
<g id="node70" class="node"><title>distance reqgrp 0</title>
<ellipse fill="none" stroke="red" cx="2542" cy="-165" rx="96.8736" ry="18.3848"/>
<text text-anchor="middle" x="2542" y="-161.4" font-family="Times Roman,serif" font-size="14.00">distance reqgrp 0</text>
</g>
<!-- \ndistance\n&#45;&gt;distance reqgrp 0 -->
<g id="edge70" class="edge"><title>\ndistance\n&#45;&gt;distance reqgrp 0</title>
<path fill="none" stroke="blue" d="M2542,-257.467C2542,-238.16 2542,-213.06 2542,-193.884"/>
<polygon fill="blue" stroke="blue" points="2545.5,-193.641 2542,-183.641 2538.5,-193.641 2545.5,-193.641"/>
</g>
<!-- distance reqgrp 0 req 0\n\nvalue from concepts -->
<g id="node72" class="node"><title>distance reqgrp 0 req 0\n\nvalue from concepts</title>
<ellipse fill="none" stroke="green" cx="2527" cy="-43" rx="125.158" ry="42.4264"/>
<text text-anchor="middle" x="2527" y="-56.4" font-family="Times Roman,serif" font-size="14.00">distance reqgrp 0 req 0</text>
<text text-anchor="middle" x="2527" y="-22.4" font-family="Times Roman,serif" font-size="14.00">value from concepts</text>
</g>
<!-- distance reqgrp 0&#45;&gt;distance reqgrp 0 req 0\n\nvalue from concepts -->
<g id="edge72" class="edge"><title>distance reqgrp 0&#45;&gt;distance reqgrp 0 req 0\n\nvalue from concepts</title>
<path fill="none" stroke="red" d="M2539.72,-146.471C2538.05,-132.86 2535.69,-113.649 2533.45,-95.4689"/>
<polygon fill="red" stroke="red" points="2536.92,-95.0153 2532.23,-85.5171 2529.97,-95.8695 2536.92,-95.0153"/>
</g>
<!-- time reqgrp 0 -->
<g id="node76" class="node"><title>time reqgrp 0</title>
<ellipse fill="none" stroke="red" cx="2750" cy="-165" rx="77.7817" ry="18.3848"/>
<text text-anchor="middle" x="2750" y="-161.4" font-family="Times Roman,serif" font-size="14.00">time reqgrp 0</text>
</g>
<!-- \ntime\n&#45;&gt;time reqgrp 0 -->
<g id="edge76" class="edge"><title>\ntime\n&#45;&gt;time reqgrp 0</title>
<path fill="none" stroke="blue" d="M2709.03,-259.316C2717.69,-239.379 2729.32,-212.592 2737.98,-192.66"/>
<polygon fill="blue" stroke="blue" points="2741.19,-194.052 2741.97,-183.486 2734.77,-191.263 2741.19,-194.052"/>
</g>
<!-- time reqgrp 0 req 0\n\nvalue from concepts -->
<g id="node78" class="node"><title>time reqgrp 0 req 0\n\nvalue from concepts</title>
<ellipse fill="none" stroke="green" cx="2779" cy="-43" rx="109.101" ry="42.4264"/>
<text text-anchor="middle" x="2779" y="-56.4" font-family="Times Roman,serif" font-size="14.00">time reqgrp 0 req 0</text>
<text text-anchor="middle" x="2779" y="-22.4" font-family="Times Roman,serif" font-size="14.00">value from concepts</text>
</g>
<!-- time reqgrp 0&#45;&gt;time reqgrp 0 req 0\n\nvalue from concepts -->
<g id="edge78" class="edge"><title>time reqgrp 0&#45;&gt;time reqgrp 0 req 0\n\nvalue from concepts</title>
<path fill="none" stroke="red" d="M2754.4,-146.471C2757.64,-132.86 2762.21,-113.649 2766.53,-95.4689"/>
<polygon fill="red" stroke="red" points="2769.99,-96.0555 2768.89,-85.5171 2763.18,-94.4366 2769.99,-96.0555"/>
</g>
</g>
</svg>
