<?xml version="1.0" encoding="UTF-8" standalone="no"?>
<!DOCTYPE svg PUBLIC "-//W3C//DTD SVG 1.1//EN"
 "http://www.w3.org/Graphics/SVG/1.1/DTD/svg11.dtd">
<!-- Generated by graphviz version 2.26.3 (20100126.1600)
 -->
<!-- Title: web Pages: 1 -->
<svg width="2670pt" height="600pt"
 viewBox="0.00 0.00 2670.00 600.00" xmlns="http://www.w3.org/2000/svg" xmlns:xlink="http://www.w3.org/1999/xlink">
<g id="graph1" class="graph" transform="scale(1 1) rotate(0) translate(4 596)">
<title>web</title>
<polygon fill="white" stroke="white" points="-4,5 -4,-596 2667,-596 2667,5 -4,5"/>
<!-- \nconcepts\n -->
<g id="node1" class="node"><title>\nconcepts\n</title>
<ellipse fill="none" stroke="black" cx="1391" cy="-562" rx="53.9477" ry="29.6985"/>
<text text-anchor="middle" x="1391" y="-550.4" font-family="Times Roman,serif" font-size="14.00">concepts</text>
</g>
<!-- \naction\n -->
<g id="node3" class="node"><title>\naction\n</title>
<ellipse fill="none" stroke="black" cx="1116" cy="-466" rx="41.2167" ry="29.6985"/>
<text text-anchor="middle" x="1116" y="-454.4" font-family="Times Roman,serif" font-size="14.00">action</text>
</g>
<!-- \nconcepts\n&#45;&gt;\naction\n -->
<g id="edge2" class="edge"><title>\nconcepts\n&#45;&gt;\naction\n</title>
<path fill="none" stroke="black" d="M1345.28,-546.04C1294.63,-528.359 1213.4,-500.003 1162.46,-482.219"/>
<polygon fill="black" stroke="black" points="1163.6,-478.909 1153,-478.918 1161.29,-485.518 1163.6,-478.909"/>
</g>
<!-- \nvalue\n -->
<g id="node25" class="node"><title>\nvalue\n</title>
<ellipse fill="none" stroke="black" cx="1391" cy="-466" rx="38.1838" ry="29.6985"/>
<text text-anchor="middle" x="1391" y="-454.4" font-family="Times Roman,serif" font-size="14.00">value</text>
</g>
<!-- \nconcepts\n&#45;&gt;\nvalue\n -->
<g id="edge24" class="edge"><title>\nconcepts\n&#45;&gt;\nvalue\n</title>
<path fill="none" stroke="black" d="M1391,-532.414C1391,-524.019 1391,-514.739 1391,-505.843"/>
<polygon fill="black" stroke="black" points="1394.5,-505.654 1391,-495.654 1387.5,-505.654 1394.5,-505.654"/>
</g>
<!-- \ndescriptor\n -->
<g id="node39" class="node"><title>\ndescriptor\n</title>
<ellipse fill="none" stroke="black" cx="1817" cy="-466" rx="60.1041" ry="29.6985"/>
<text text-anchor="middle" x="1817" y="-454.4" font-family="Times Roman,serif" font-size="14.00">descriptor</text>
</g>
<!-- \nconcepts\n&#45;&gt;\ndescriptor\n -->
<g id="edge38" class="edge"><title>\nconcepts\n&#45;&gt;\ndescriptor\n</title>
<path fill="none" stroke="black" d="M1441.12,-550.705C1518.55,-533.256 1667.22,-499.753 1752.55,-480.525"/>
<polygon fill="black" stroke="black" points="1753.39,-483.923 1762.38,-478.31 1751.85,-477.094 1753.39,-483.923"/>
</g>
<!-- \nmovement\n -->
<g id="node5" class="node"><title>\nmovement\n</title>
<ellipse fill="none" stroke="black" cx="826" cy="-370" rx="63.1385" ry="29.6985"/>
<text text-anchor="middle" x="826" y="-358.4" font-family="Times Roman,serif" font-size="14.00">movement</text>
</g>
<!-- \naction\n&#45;&gt;\nmovement\n -->
<g id="edge4" class="edge"><title>\naction\n&#45;&gt;\nmovement\n</title>
<path fill="none" stroke="black" d="M1078.68,-453.646C1030.31,-437.633 945.308,-409.495 887.371,-390.316"/>
<polygon fill="black" stroke="black" points="888.193,-386.901 877.6,-387.081 885.993,-393.547 888.193,-386.901"/>
</g>
<!-- \ntravel\n -->
<g id="node7" class="node"><title>\ntravel\n</title>
<ellipse fill="none" stroke="blue" cx="724" cy="-274" rx="39.8075" ry="29.6985"/>
<text text-anchor="middle" x="724" y="-262.4" font-family="Times Roman,serif" font-size="14.00">travel</text>
</g>
<!-- \nmovement\n&#45;&gt;\ntravel\n -->
<g id="edge6" class="edge"><title>\nmovement\n&#45;&gt;\ntravel\n</title>
<path fill="none" stroke="black" d="M797.858,-343.513C785.042,-331.451 769.797,-317.103 756.496,-304.584"/>
<polygon fill="black" stroke="black" points="758.602,-301.76 748.921,-297.455 753.805,-306.858 758.602,-301.76"/>
</g>
<!-- travel reqgrp 0 -->
<g id="node8" class="node"><title>travel reqgrp 0</title>
<ellipse fill="none" stroke="red" cx="275" cy="-165" rx="84.8528" ry="18.3848"/>
<text text-anchor="middle" x="275" y="-161.4" font-family="Times Roman,serif" font-size="14.00">travel reqgrp 0</text>
</g>
<!-- \ntravel\n&#45;&gt;travel reqgrp 0 -->
<g id="edge8" class="edge"><title>\ntravel\n&#45;&gt;travel reqgrp 0</title>
<path fill="none" stroke="blue" d="M685.719,-264.707C609.319,-246.16 437.095,-204.351 341.717,-181.196"/>
<polygon fill="blue" stroke="blue" points="342.431,-177.768 331.888,-178.81 340.78,-184.57 342.431,-177.768"/>
</g>
<!-- travel reqgrp 1 -->
<g id="node12" class="node"><title>travel reqgrp 1</title>
<ellipse fill="none" stroke="red" cx="623" cy="-165" rx="84.8528" ry="18.3848"/>
<text text-anchor="middle" x="623" y="-161.4" font-family="Times Roman,serif" font-size="14.00">travel reqgrp 1</text>
</g>
<!-- \ntravel\n&#45;&gt;travel reqgrp 1 -->
<g id="edge12" class="edge"><title>\ntravel\n&#45;&gt;travel reqgrp 1</title>
<path fill="none" stroke="blue" d="M701.334,-249.538C685.194,-232.12 663.539,-208.75 647.087,-190.995"/>
<polygon fill="blue" stroke="blue" points="649.298,-188.231 639.934,-183.275 644.163,-192.989 649.298,-188.231"/>
</g>
<!-- travel reqgrp 2 -->
<g id="node18" class="node"><title>travel reqgrp 2</title>
<ellipse fill="none" stroke="red" cx="848" cy="-165" rx="84.8528" ry="18.3848"/>
<text text-anchor="middle" x="848" y="-161.4" font-family="Times Roman,serif" font-size="14.00">travel reqgrp 2</text>
</g>
<!-- \ntravel\n&#45;&gt;travel reqgrp 2 -->
<g id="edge18" class="edge"><title>\ntravel\n&#45;&gt;travel reqgrp 2</title>
<path fill="none" stroke="blue" d="M749.994,-251.15C770.397,-233.215 798.761,-208.282 819.728,-189.852"/>
<polygon fill="blue" stroke="blue" points="822.169,-192.366 827.369,-183.135 817.548,-187.108 822.169,-192.366"/>
</g>
<!-- travel reqgrp 0 req 0\n\nplace from descriptor -->
<g id="node10" class="node"><title>travel reqgrp 0 req 0\n\nplace from descriptor</title>
<ellipse fill="none" stroke="green" cx="114" cy="-43" rx="113.844" ry="42.4264"/>
<text text-anchor="middle" x="114" y="-56.4" font-family="Times Roman,serif" font-size="14.00">travel reqgrp 0 req 0</text>
<text text-anchor="middle" x="114" y="-22.4" font-family="Times Roman,serif" font-size="14.00">place from descriptor</text>
</g>
<!-- travel reqgrp 0&#45;&gt;travel reqgrp 0 req 0\n\nplace from descriptor -->
<g id="edge10" class="edge"><title>travel reqgrp 0&#45;&gt;travel reqgrp 0 req 0\n\nplace from descriptor</title>
<path fill="none" stroke="red" d="M251.244,-146.998C230.634,-131.381 199.927,-108.112 172.781,-87.5421"/>
<polygon fill="red" stroke="red" points="174.57,-84.5064 164.486,-81.2564 170.342,-90.0855 174.57,-84.5064"/>
</g>
<!-- travel reqgrp 1 req 0\n\ndistance from unit -->
<g id="node14" class="node"><title>travel reqgrp 1 req 0\n\ndistance from unit</title>
<ellipse fill="none" stroke="green" cx="360" cy="-43" rx="113.844" ry="42.4264"/>
<text text-anchor="middle" x="360" y="-56.4" font-family="Times Roman,serif" font-size="14.00">travel reqgrp 1 req 0</text>
<text text-anchor="middle" x="360" y="-22.4" font-family="Times Roman,serif" font-size="14.00">distance from unit</text>
</g>
<!-- travel reqgrp 1&#45;&gt;travel reqgrp 1 req 0\n\ndistance from unit -->
<g id="edge14" class="edge"><title>travel reqgrp 1&#45;&gt;travel reqgrp 1 req 0\n\ndistance from unit</title>
<path fill="none" stroke="red" d="M586.707,-148.165C549.243,-130.786 489.558,-103.099 440.83,-80.4954"/>
<polygon fill="red" stroke="red" points="442.099,-77.2257 431.554,-76.1926 439.153,-83.5757 442.099,-77.2257"/>
</g>
<!-- travel reqgrp 1 req 1\n\ndirection from descriptor -->
<g id="node16" class="node"><title>travel reqgrp 1 req 1\n\ndirection from descriptor</title>
<ellipse fill="none" stroke="green" cx="623" cy="-43" rx="130.815" ry="42.4264"/>
<text text-anchor="middle" x="623" y="-56.4" font-family="Times Roman,serif" font-size="14.00">travel reqgrp 1 req 1</text>
<text text-anchor="middle" x="623" y="-22.4" font-family="Times Roman,serif" font-size="14.00">direction from descriptor</text>
</g>
<!-- travel reqgrp 1&#45;&gt;travel reqgrp 1 req 1\n\ndirection from descriptor -->
<g id="edge16" class="edge"><title>travel reqgrp 1&#45;&gt;travel reqgrp 1 req 1\n\ndirection from descriptor</title>
<path fill="none" stroke="red" d="M623,-146.471C623,-132.923 623,-113.827 623,-95.7215"/>
<polygon fill="red" stroke="red" points="626.5,-95.5171 623,-85.5171 619.5,-95.5172 626.5,-95.5171"/>
</g>
<!-- travel reqgrp 2 req 0\n\ntime from unit -->
<g id="node20" class="node"><title>travel reqgrp 2 req 0\n\ntime from unit</title>
<ellipse fill="none" stroke="green" cx="886" cy="-43" rx="113.844" ry="42.4264"/>
<text text-anchor="middle" x="886" y="-56.4" font-family="Times Roman,serif" font-size="14.00">travel reqgrp 2 req 0</text>
<text text-anchor="middle" x="886" y="-22.4" font-family="Times Roman,serif" font-size="14.00">time from unit</text>
</g>
<!-- travel reqgrp 2&#45;&gt;travel reqgrp 2 req 0\n\ntime from unit -->
<g id="edge20" class="edge"><title>travel reqgrp 2&#45;&gt;travel reqgrp 2 req 0\n\ntime from unit</title>
<path fill="none" stroke="red" d="M853.771,-146.471C858.048,-132.74 864.1,-113.311 869.806,-94.9902"/>
<polygon fill="red" stroke="red" points="873.205,-95.8476 872.837,-85.2591 866.522,-93.7659 873.205,-95.8476"/>
</g>
<!-- travel reqgrp 2 req 1\n\ndirection from descriptor -->
<g id="node22" class="node"><title>travel reqgrp 2 req 1\n\ndirection from descriptor</title>
<ellipse fill="none" stroke="green" cx="1149" cy="-43" rx="130.815" ry="42.4264"/>
<text text-anchor="middle" x="1149" y="-56.4" font-family="Times Roman,serif" font-size="14.00">travel reqgrp 2 req 1</text>
<text text-anchor="middle" x="1149" y="-22.4" font-family="Times Roman,serif" font-size="14.00">direction from descriptor</text>
</g>
<!-- travel reqgrp 2&#45;&gt;travel reqgrp 2 req 1\n\ndirection from descriptor -->
<g id="edge22" class="edge"><title>travel reqgrp 2&#45;&gt;travel reqgrp 2 req 1\n\ndirection from descriptor</title>
<path fill="none" stroke="red" d="M883.47,-148.12C900.972,-139.959 922.469,-130.184 942,-122 977.671,-107.053 1017.25,-91.6602 1052.17,-78.478"/>
<polygon fill="red" stroke="red" points="1053.76,-81.6187 1061.89,-74.8207 1051.3,-75.0672 1053.76,-81.6187"/>
</g>
<!-- \nnumber\n -->
<g id="node27" class="node"><title>\nnumber\n</title>
<ellipse fill="none" stroke="blue" cx="1280" cy="-370" rx="48.9975" ry="29.6985"/>
<text text-anchor="middle" x="1280" y="-358.4" font-family="Times Roman,serif" font-size="14.00">number</text>
</g>
<!-- \nvalue\n&#45;&gt;\nnumber\n -->
<g id="edge26" class="edge"><title>\nvalue\n&#45;&gt;\nnumber\n</title>
<path fill="none" stroke="black" d="M1365.53,-443.976C1350.79,-431.226 1332.01,-414.978 1315.8,-400.959"/>
<polygon fill="black" stroke="black" points="1317.93,-398.175 1308.07,-394.281 1313.35,-403.47 1317.93,-398.175"/>
</g>
<!-- \ncolor\n -->
<g id="node33" class="node"><title>\ncolor\n</title>
<ellipse fill="none" stroke="blue" cx="1503" cy="-370" rx="34.8574" ry="29.6985"/>
<text text-anchor="middle" x="1503" y="-358.4" font-family="Times Roman,serif" font-size="14.00">color</text>
</g>
<!-- \nvalue\n&#45;&gt;\ncolor\n -->
<g id="edge32" class="edge"><title>\nvalue\n&#45;&gt;\ncolor\n</title>
<path fill="none" stroke="black" d="M1416.7,-443.976C1432.57,-430.37 1453.09,-412.78 1470.14,-398.166"/>
<polygon fill="black" stroke="black" points="1472.88,-400.427 1478.19,-391.262 1468.32,-395.112 1472.88,-400.427"/>
</g>
<!-- number reqgrp 0 -->
<g id="node28" class="node"><title>number reqgrp 0</title>
<ellipse fill="none" stroke="red" cx="1159" cy="-274" rx="94.0452" ry="18.3848"/>
<text text-anchor="middle" x="1159" y="-270.4" font-family="Times Roman,serif" font-size="14.00">number reqgrp 0</text>
</g>
<!-- \nnumber\n&#45;&gt;number reqgrp 0 -->
<g id="edge28" class="edge"><title>\nnumber\n&#45;&gt;number reqgrp 0</title>
<path fill="none" stroke="blue" d="M1250.09,-346.27C1231.68,-331.663 1208.14,-312.987 1189.6,-298.28"/>
<polygon fill="blue" stroke="blue" points="1191.74,-295.511 1181.73,-292.037 1187.39,-300.995 1191.74,-295.511"/>
</g>
<!-- number reqgrp 0 req 0\n\ndescriptor from concepts -->
<g id="node30" class="node"><title>number reqgrp 0 req 0\n\ndescriptor from concepts</title>
<ellipse fill="none" stroke="green" cx="1082" cy="-165" rx="130.815" ry="42.4264"/>
<text text-anchor="middle" x="1082" y="-178.4" font-family="Times Roman,serif" font-size="14.00">number reqgrp 0 req 0</text>
<text text-anchor="middle" x="1082" y="-144.4" font-family="Times Roman,serif" font-size="14.00">descriptor from concepts</text>
</g>
<!-- number reqgrp 0&#45;&gt;number reqgrp 0 req 0\n\ndescriptor from concepts -->
<g id="edge30" class="edge"><title>number reqgrp 0&#45;&gt;number reqgrp 0 req 0\n\ndescriptor from concepts</title>
<path fill="none" stroke="red" d="M1145.94,-255.51C1138.05,-244.339 1127.58,-229.516 1117.4,-215.106"/>
<polygon fill="red" stroke="red" points="1120.09,-212.847 1111.46,-206.699 1114.37,-216.886 1120.09,-212.847"/>
</g>
<!-- color reqgrp 0 -->
<g id="node34" class="node"><title>color reqgrp 0</title>
<ellipse fill="none" stroke="red" cx="1503" cy="-274" rx="79.9031" ry="18.3848"/>
<text text-anchor="middle" x="1503" y="-270.4" font-family="Times Roman,serif" font-size="14.00">color reqgrp 0</text>
</g>
<!-- \ncolor\n&#45;&gt;color reqgrp 0 -->
<g id="edge34" class="edge"><title>\ncolor\n&#45;&gt;color reqgrp 0</title>
<path fill="none" stroke="blue" d="M1496.74,-340.936C1496.08,-328.814 1496.09,-314.773 1496.76,-302.691"/>
<polygon fill="blue" stroke="blue" points="1500.25,-302.913 1497.53,-292.675 1493.27,-302.38 1500.25,-302.913"/>
</g>
<!-- \ncolor\n&#45;&gt;color reqgrp 0 -->
<g id="edge68" class="edge"><title>\ncolor\n&#45;&gt;color reqgrp 0</title>
<path fill="none" stroke="blue" d="M1509.26,-340.936C1509.92,-328.814 1509.91,-314.773 1509.24,-302.691"/>
<polygon fill="blue" stroke="blue" points="1512.73,-302.38 1508.47,-292.675 1505.75,-302.913 1512.73,-302.38"/>
</g>
<!-- color reqgrp 0 req 0\n\ncolor from descriptor -->
<g id="node36" class="node"><title>color reqgrp 0 req 0\n\ncolor from descriptor</title>
<ellipse fill="none" stroke="green" cx="1342" cy="-165" rx="111.222" ry="42.4264"/>
<text text-anchor="middle" x="1342" y="-178.4" font-family="Times Roman,serif" font-size="14.00">color reqgrp 0 req 0</text>
<text text-anchor="middle" x="1342" y="-144.4" font-family="Times Roman,serif" font-size="14.00">color from descriptor</text>
</g>
<!-- color reqgrp 0&#45;&gt;color reqgrp 0 req 0\n\ncolor from descriptor -->
<g id="edge36" class="edge"><title>color reqgrp 0&#45;&gt;color reqgrp 0 req 0\n\ncolor from descriptor</title>
<path fill="none" stroke="red" d="M1477.13,-256.487C1457.73,-243.349 1430.3,-224.781 1405.22,-207.802"/>
<polygon fill="red" stroke="red" points="1407.06,-204.823 1396.82,-202.115 1403.14,-210.62 1407.06,-204.823"/>
</g>
<!-- color reqgrp 0 req 0\n\ncolor from value -->
<g id="node68" class="node"><title>color reqgrp 0 req 0\n\ncolor from value</title>
<ellipse fill="none" stroke="green" cx="1579" cy="-165" rx="108.187" ry="42.4264"/>
<text text-anchor="middle" x="1579" y="-178.4" font-family="Times Roman,serif" font-size="14.00">color reqgrp 0 req 0</text>
<text text-anchor="middle" x="1579" y="-144.4" font-family="Times Roman,serif" font-size="14.00">color from value</text>
</g>
<!-- color reqgrp 0&#45;&gt;color reqgrp 0 req 0\n\ncolor from value -->
<g id="edge70" class="edge"><title>color reqgrp 0&#45;&gt;color reqgrp 0 req 0\n\ncolor from value</title>
<path fill="none" stroke="red" d="M1515.89,-255.51C1523.75,-244.238 1534.2,-229.246 1544.34,-214.713"/>
<polygon fill="red" stroke="red" points="1547.4,-216.445 1550.25,-206.24 1541.66,-212.441 1547.4,-216.445"/>
</g>
<!-- \ndescriptor\n&#45;&gt;\ncolor\n -->
<g id="edge66" class="edge"><title>\ndescriptor\n&#45;&gt;\ncolor\n</title>
<path fill="none" stroke="black" d="M1765.85,-450.362C1704.7,-431.667 1603.45,-400.712 1546.11,-383.179"/>
<polygon fill="black" stroke="black" points="1546.85,-379.748 1536.27,-380.171 1544.81,-386.442 1546.85,-379.748"/>
</g>
<!-- \nplace\n -->
<g id="node41" class="node"><title>\nplace\n</title>
<ellipse fill="none" stroke="blue" cx="1817" cy="-370" rx="36.7696" ry="29.6985"/>
<text text-anchor="middle" x="1817" y="-358.4" font-family="Times Roman,serif" font-size="14.00">place</text>
</g>
<!-- \ndescriptor\n&#45;&gt;\nplace\n -->
<g id="edge40" class="edge"><title>\ndescriptor\n&#45;&gt;\nplace\n</title>
<path fill="none" stroke="black" d="M1817,-436.414C1817,-428.019 1817,-418.739 1817,-409.843"/>
<polygon fill="black" stroke="black" points="1820.5,-409.654 1817,-399.654 1813.5,-409.654 1820.5,-409.654"/>
</g>
<!-- \ndirection\n -->
<g id="node47" class="node"><title>\ndirection\n</title>
<ellipse fill="none" stroke="blue" cx="1986" cy="-370" rx="53.9477" ry="29.6985"/>
<text text-anchor="middle" x="1986" y="-358.4" font-family="Times Roman,serif" font-size="14.00">direction</text>
</g>
<!-- \ndescriptor\n&#45;&gt;\ndirection\n -->
<g id="edge46" class="edge"><title>\ndescriptor\n&#45;&gt;\ndirection\n</title>
<path fill="none" stroke="black" d="M1856.62,-443.492C1881.41,-429.413 1913.45,-411.212 1939.44,-396.446"/>
<polygon fill="black" stroke="black" points="1941.4,-399.361 1948.37,-391.378 1937.94,-393.274 1941.4,-399.361"/>
</g>
<!-- \nunit\n -->
<g id="node53" class="node"><title>\nunit\n</title>
<ellipse fill="none" stroke="black" cx="2316" cy="-370" rx="31.1127" ry="29.6985"/>
<text text-anchor="middle" x="2316" y="-358.4" font-family="Times Roman,serif" font-size="14.00">unit</text>
</g>
<!-- \ndescriptor\n&#45;&gt;\nunit\n -->
<g id="edge52" class="edge"><title>\ndescriptor\n&#45;&gt;\nunit\n</title>
<path fill="none" stroke="black" d="M1873.27,-455.174C1974.9,-435.623 2186.73,-394.87 2275.49,-377.793"/>
<polygon fill="black" stroke="black" points="2276.29,-381.205 2285.44,-375.879 2274.96,-374.331 2276.29,-381.205"/>
</g>
<!-- place reqgrp 0 -->
<g id="node42" class="node"><title>place reqgrp 0</title>
<ellipse fill="none" stroke="red" cx="1817" cy="-274" rx="80.8184" ry="18.3848"/>
<text text-anchor="middle" x="1817" y="-270.4" font-family="Times Roman,serif" font-size="14.00">place reqgrp 0</text>
</g>
<!-- \nplace\n&#45;&gt;place reqgrp 0 -->
<g id="edge42" class="edge"><title>\nplace\n&#45;&gt;place reqgrp 0</title>
<path fill="none" stroke="blue" d="M1817,-340.414C1817,-328.519 1817,-314.846 1817,-303.01"/>
<polygon fill="blue" stroke="blue" points="1820.5,-302.76 1817,-292.76 1813.5,-302.76 1820.5,-302.76"/>
</g>
<!-- place reqgrp 0 req 0\n\naction from concepts -->
<g id="node44" class="node"><title>place reqgrp 0 req 0\n\naction from concepts</title>
<ellipse fill="none" stroke="green" cx="1817" cy="-165" rx="111.93" ry="42.4264"/>
<text text-anchor="middle" x="1817" y="-178.4" font-family="Times Roman,serif" font-size="14.00">place reqgrp 0 req 0</text>
<text text-anchor="middle" x="1817" y="-144.4" font-family="Times Roman,serif" font-size="14.00">action from concepts</text>
</g>
<!-- place reqgrp 0&#45;&gt;place reqgrp 0 req 0\n\naction from concepts -->
<g id="edge44" class="edge"><title>place reqgrp 0&#45;&gt;place reqgrp 0 req 0\n\naction from concepts</title>
<path fill="none" stroke="red" d="M1817,-255.014C1817,-244.612 1817,-231.154 1817,-217.829"/>
<polygon fill="red" stroke="red" points="1820.5,-217.718 1817,-207.718 1813.5,-217.718 1820.5,-217.718"/>
</g>
<!-- direction reqgrp 0 -->
<g id="node48" class="node"><title>direction reqgrp 0</title>
<ellipse fill="none" stroke="red" cx="2045" cy="-274" rx="98.9949" ry="18.3848"/>
<text text-anchor="middle" x="2045" y="-270.4" font-family="Times Roman,serif" font-size="14.00">direction reqgrp 0</text>
</g>
<!-- \ndirection\n&#45;&gt;direction reqgrp 0 -->
<g id="edge48" class="edge"><title>\ndirection\n&#45;&gt;direction reqgrp 0</title>
<path fill="none" stroke="blue" d="M2003.22,-341.975C2011.11,-329.149 2020.41,-314.007 2028.24,-301.274"/>
<polygon fill="blue" stroke="blue" points="2031.38,-302.848 2033.63,-292.496 2025.41,-299.183 2031.38,-302.848"/>
</g>
<!-- direction reqgrp 0 req 0\n\naction from concepts -->
<g id="node50" class="node"><title>direction reqgrp 0 req 0\n\naction from concepts</title>
<ellipse fill="none" stroke="green" cx="2074" cy="-165" rx="126.78" ry="42.4264"/>
<text text-anchor="middle" x="2074" y="-178.4" font-family="Times Roman,serif" font-size="14.00">direction reqgrp 0 req 0</text>
<text text-anchor="middle" x="2074" y="-144.4" font-family="Times Roman,serif" font-size="14.00">action from concepts</text>
</g>
<!-- direction reqgrp 0&#45;&gt;direction reqgrp 0 req 0\n\naction from concepts -->
<g id="edge50" class="edge"><title>direction reqgrp 0&#45;&gt;direction reqgrp 0 req 0\n\naction from concepts</title>
<path fill="none" stroke="red" d="M2049.92,-255.51C2052.73,-244.953 2056.41,-231.132 2060.04,-217.481"/>
<polygon fill="red" stroke="red" points="2063.47,-218.184 2062.66,-207.62 2056.71,-216.384 2063.47,-218.184"/>
</g>
<!-- \ndistance\n -->
<g id="node55" class="node"><title>\ndistance\n</title>
<ellipse fill="none" stroke="blue" cx="2316" cy="-274" rx="51.8276" ry="29.6985"/>
<text text-anchor="middle" x="2316" y="-262.4" font-family="Times Roman,serif" font-size="14.00">distance</text>
</g>
<!-- \nunit\n&#45;&gt;\ndistance\n -->
<g id="edge54" class="edge"><title>\nunit\n&#45;&gt;\ndistance\n</title>
<path fill="none" stroke="black" d="M2316,-340.414C2316,-332.019 2316,-322.739 2316,-313.843"/>
<polygon fill="black" stroke="black" points="2319.5,-313.654 2316,-303.654 2312.5,-313.654 2319.5,-313.654"/>
</g>
<!-- \ntime\n -->
<g id="node61" class="node"><title>\ntime\n</title>
<ellipse fill="none" stroke="blue" cx="2471" cy="-274" rx="33.234" ry="29.6985"/>
<text text-anchor="middle" x="2471" y="-262.4" font-family="Times Roman,serif" font-size="14.00">time</text>
</g>
<!-- \nunit\n&#45;&gt;\ntime\n -->
<g id="edge60" class="edge"><title>\nunit\n&#45;&gt;\ntime\n</title>
<path fill="none" stroke="black" d="M2342.29,-353.715C2367.78,-337.93 2406.64,-313.864 2434.99,-296.304"/>
<polygon fill="black" stroke="black" points="2437.14,-299.091 2443.79,-290.85 2433.45,-293.14 2437.14,-299.091"/>
</g>
<!-- distance reqgrp 0 -->
<g id="node56" class="node"><title>distance reqgrp 0</title>
<ellipse fill="none" stroke="red" cx="2316" cy="-165" rx="96.8736" ry="18.3848"/>
<text text-anchor="middle" x="2316" y="-161.4" font-family="Times Roman,serif" font-size="14.00">distance reqgrp 0</text>
</g>
<!-- \ndistance\n&#45;&gt;distance reqgrp 0 -->
<g id="edge56" class="edge"><title>\ndistance\n&#45;&gt;distance reqgrp 0</title>
<path fill="none" stroke="blue" d="M2316,-244.215C2316,-228.544 2316,-209.413 2316,-193.878"/>
<polygon fill="blue" stroke="blue" points="2319.5,-193.784 2316,-183.784 2312.5,-193.784 2319.5,-193.784"/>
</g>
<!-- distance reqgrp 0 req 0\n\nvalue from concepts -->
<g id="node58" class="node"><title>distance reqgrp 0 req 0\n\nvalue from concepts</title>
<ellipse fill="none" stroke="green" cx="2301" cy="-43" rx="125.158" ry="42.4264"/>
<text text-anchor="middle" x="2301" y="-56.4" font-family="Times Roman,serif" font-size="14.00">distance reqgrp 0 req 0</text>
<text text-anchor="middle" x="2301" y="-22.4" font-family="Times Roman,serif" font-size="14.00">value from concepts</text>
</g>
<!-- distance reqgrp 0&#45;&gt;distance reqgrp 0 req 0\n\nvalue from concepts -->
<g id="edge58" class="edge"><title>distance reqgrp 0&#45;&gt;distance reqgrp 0 req 0\n\nvalue from concepts</title>
<path fill="none" stroke="red" d="M2313.72,-146.471C2312.05,-132.86 2309.69,-113.649 2307.45,-95.4689"/>
<polygon fill="red" stroke="red" points="2310.92,-95.0153 2306.23,-85.5171 2303.97,-95.8695 2310.92,-95.0153"/>
</g>
<!-- time reqgrp 0 -->
<g id="node62" class="node"><title>time reqgrp 0</title>
<ellipse fill="none" stroke="red" cx="2524" cy="-165" rx="77.7817" ry="18.3848"/>
<text text-anchor="middle" x="2524" y="-161.4" font-family="Times Roman,serif" font-size="14.00">time reqgrp 0</text>
</g>
<!-- \ntime\n&#45;&gt;time reqgrp 0 -->
<g id="edge62" class="edge"><title>\ntime\n&#45;&gt;time reqgrp 0</title>
<path fill="none" stroke="blue" d="M2484.24,-246.776C2492.23,-230.33 2502.4,-209.419 2510.45,-192.86"/>
<polygon fill="blue" stroke="blue" points="2513.69,-194.203 2514.92,-183.68 2507.4,-191.142 2513.69,-194.203"/>
</g>
<!-- time reqgrp 0 req 0\n\nvalue from concepts -->
<g id="node64" class="node"><title>time reqgrp 0 req 0\n\nvalue from concepts</title>
<ellipse fill="none" stroke="green" cx="2553" cy="-43" rx="109.101" ry="42.4264"/>
<text text-anchor="middle" x="2553" y="-56.4" font-family="Times Roman,serif" font-size="14.00">time reqgrp 0 req 0</text>
<text text-anchor="middle" x="2553" y="-22.4" font-family="Times Roman,serif" font-size="14.00">value from concepts</text>
</g>
<!-- time reqgrp 0&#45;&gt;time reqgrp 0 req 0\n\nvalue from concepts -->
<g id="edge64" class="edge"><title>time reqgrp 0&#45;&gt;time reqgrp 0 req 0\n\nvalue from concepts</title>
<path fill="none" stroke="red" d="M2528.4,-146.471C2531.64,-132.86 2536.21,-113.649 2540.53,-95.4689"/>
<polygon fill="red" stroke="red" points="2543.99,-96.0555 2542.89,-85.5171 2537.18,-94.4366 2543.99,-96.0555"/>
</g>
</g>
</svg>
