<?xml version="1.0" encoding="UTF-8" standalone="no"?>
<!DOCTYPE svg PUBLIC "-//W3C//DTD SVG 1.1//EN"
 "http://www.w3.org/Graphics/SVG/1.1/DTD/svg11.dtd">
<!-- Generated by graphviz version 2.26.3 (20100126.1600)
 -->
<!-- Title: web Pages: 1 -->
<svg width="1288pt" height="552pt"
 viewBox="0.00 0.00 1288.00 552.00" xmlns="http://www.w3.org/2000/svg" xmlns:xlink="http://www.w3.org/1999/xlink">
<g id="graph1" class="graph" transform="scale(1 1) rotate(0) translate(4 548)">
<title>web</title>
<polygon fill="white" stroke="white" points="-4,5 -4,-548 1285,-548 1285,5 -4,5"/>
<!-- \nconcepts\n -->
<g id="node1" class="node"><title>\nconcepts\n</title>
<ellipse fill="none" stroke="black" cx="491" cy="-514" rx="53.9477" ry="29.6985"/>
<text text-anchor="middle" x="491" y="-502.4" font-family="Times Roman,serif" font-size="14.00">concepts</text>
</g>
<!-- \naction\n -->
<g id="node3" class="node"><title>\naction\n</title>
<ellipse fill="none" stroke="black" cx="491" cy="-418" rx="41.2167" ry="29.6985"/>
<text text-anchor="middle" x="491" y="-406.4" font-family="Times Roman,serif" font-size="14.00">action</text>
</g>
<!-- \nconcepts\n&#45;&gt;\naction\n -->
<g id="edge2" class="edge"><title>\nconcepts\n&#45;&gt;\naction\n</title>
<path fill="none" stroke="black" d="M491,-484.414C491,-476.019 491,-466.739 491,-457.843"/>
<polygon fill="black" stroke="black" points="494.5,-457.654 491,-447.654 487.5,-457.654 494.5,-457.654"/>
</g>
<!-- \nmovement\n -->
<g id="node5" class="node"><title>\nmovement\n</title>
<ellipse fill="none" stroke="black" cx="491" cy="-322" rx="63.1385" ry="29.6985"/>
<text text-anchor="middle" x="491" y="-310.4" font-family="Times Roman,serif" font-size="14.00">movement</text>
</g>
<!-- \naction\n&#45;&gt;\nmovement\n -->
<g id="edge4" class="edge"><title>\naction\n&#45;&gt;\nmovement\n</title>
<path fill="none" stroke="black" d="M491,-388.414C491,-380.019 491,-370.739 491,-361.843"/>
<polygon fill="black" stroke="black" points="494.5,-361.654 491,-351.654 487.5,-361.654 494.5,-361.654"/>
</g>
<!-- \ntravel\n -->
<g id="node7" class="node"><title>\ntravel\n</title>
<ellipse fill="none" stroke="blue" cx="491" cy="-226" rx="39.8075" ry="29.6985"/>
<text text-anchor="middle" x="491" y="-214.4" font-family="Times Roman,serif" font-size="14.00">travel</text>
</g>
<!-- \nmovement\n&#45;&gt;\ntravel\n -->
<g id="edge6" class="edge"><title>\nmovement\n&#45;&gt;\ntravel\n</title>
<path fill="none" stroke="black" d="M491,-292.414C491,-284.019 491,-274.739 491,-265.843"/>
<polygon fill="black" stroke="black" points="494.5,-265.654 491,-255.654 487.5,-265.654 494.5,-265.654"/>
</g>
<!-- travel reqgrp 0 -->
<g id="node8" class="node"><title>travel reqgrp 0</title>
<ellipse fill="none" stroke="red" cx="274" cy="-141" rx="84.8528" ry="18.3848"/>
<text text-anchor="middle" x="274" y="-137.4" font-family="Times Roman,serif" font-size="14.00">travel reqgrp 0</text>
</g>
<!-- \ntravel\n&#45;&gt;travel reqgrp 0 -->
<g id="edge8" class="edge"><title>\ntravel\n&#45;&gt;travel reqgrp 0</title>
<path fill="none" stroke="blue" d="M455.652,-212.154C420.185,-198.261 365.196,-176.722 325.007,-160.98"/>
<polygon fill="blue" stroke="blue" points="326.232,-157.701 315.644,-157.312 323.679,-164.218 326.232,-157.701"/>
</g>
<!-- travel reqgrp 1 -->
<g id="node12" class="node"><title>travel reqgrp 1</title>
<ellipse fill="none" stroke="red" cx="491" cy="-141" rx="84.8528" ry="18.3848"/>
<text text-anchor="middle" x="491" y="-137.4" font-family="Times Roman,serif" font-size="14.00">travel reqgrp 1</text>
</g>
<!-- \ntravel\n&#45;&gt;travel reqgrp 1 -->
<g id="edge12" class="edge"><title>\ntravel\n&#45;&gt;travel reqgrp 1</title>
<path fill="none" stroke="blue" d="M491,-196.271C491,-187.721 491,-178.411 491,-169.911"/>
<polygon fill="blue" stroke="blue" points="494.5,-169.696 491,-159.696 487.5,-169.696 494.5,-169.696"/>
</g>
<!-- travel reqgrp 2 -->
<g id="node18" class="node"><title>travel reqgrp 2</title>
<ellipse fill="none" stroke="red" cx="886" cy="-141" rx="84.8528" ry="18.3848"/>
<text text-anchor="middle" x="886" y="-137.4" font-family="Times Roman,serif" font-size="14.00">travel reqgrp 2</text>
</g>
<!-- \ntravel\n&#45;&gt;travel reqgrp 2 -->
<g id="edge18" class="edge"><title>\ntravel\n&#45;&gt;travel reqgrp 2</title>
<path fill="none" stroke="blue" d="M529.593,-217.695C595.816,-203.445 732.011,-174.137 815.538,-156.163"/>
<polygon fill="blue" stroke="blue" points="816.415,-159.554 825.455,-154.029 814.943,-152.711 816.415,-159.554"/>
</g>
<!-- travel reqgrp 0 req 0\n\nplace from descriptor -->
<g id="node10" class="node"><title>travel reqgrp 0 req 0\n\nplace from descriptor</title>
<ellipse fill="none" stroke="green" cx="114" cy="-43" rx="113.844" ry="42.4264"/>
<text text-anchor="middle" x="114" y="-56.4" font-family="Times Roman,serif" font-size="14.00">travel reqgrp 0 req 0</text>
<text text-anchor="middle" x="114" y="-22.4" font-family="Times Roman,serif" font-size="14.00">place from descriptor</text>
</g>
<!-- travel reqgrp 0&#45;&gt;travel reqgrp 0 req 0\n\nplace from descriptor -->
<g id="edge10" class="edge"><title>travel reqgrp 0&#45;&gt;travel reqgrp 0 req 0\n\nplace from descriptor</title>
<path fill="none" stroke="red" d="M245.395,-123.48C227.779,-112.69 204.397,-98.368 182.244,-84.7995"/>
<polygon fill="red" stroke="red" points="183.859,-81.6844 173.503,-79.4459 180.203,-87.6537 183.859,-81.6844"/>
</g>
<!-- travel reqgrp 1 req 0\n\ndistance from unit -->
<g id="node14" class="node"><title>travel reqgrp 1 req 0\n\ndistance from unit</title>
<ellipse fill="none" stroke="green" cx="360" cy="-43" rx="113.844" ry="42.4264"/>
<text text-anchor="middle" x="360" y="-56.4" font-family="Times Roman,serif" font-size="14.00">travel reqgrp 1 req 0</text>
<text text-anchor="middle" x="360" y="-22.4" font-family="Times Roman,serif" font-size="14.00">distance from unit</text>
</g>
<!-- travel reqgrp 1&#45;&gt;travel reqgrp 1 req 0\n\ndistance from unit -->
<g id="edge14" class="edge"><title>travel reqgrp 1&#45;&gt;travel reqgrp 1 req 0\n\ndistance from unit</title>
<path fill="none" stroke="red" d="M466.973,-123.025C453.515,-112.958 436.091,-99.9227 419.226,-87.3063"/>
<polygon fill="red" stroke="red" points="421.115,-84.3489 411.011,-81.1612 416.922,-89.954 421.115,-84.3489"/>
</g>
<!-- travel reqgrp 1 req 1\n\ndirection from descriptor -->
<g id="node16" class="node"><title>travel reqgrp 1 req 1\n\ndirection from descriptor</title>
<ellipse fill="none" stroke="green" cx="623" cy="-43" rx="130.815" ry="42.4264"/>
<text text-anchor="middle" x="623" y="-56.4" font-family="Times Roman,serif" font-size="14.00">travel reqgrp 1 req 1</text>
<text text-anchor="middle" x="623" y="-22.4" font-family="Times Roman,serif" font-size="14.00">direction from descriptor</text>
</g>
<!-- travel reqgrp 1&#45;&gt;travel reqgrp 1 req 1\n\ndirection from descriptor -->
<g id="edge16" class="edge"><title>travel reqgrp 1&#45;&gt;travel reqgrp 1 req 1\n\ndirection from descriptor</title>
<path fill="none" stroke="red" d="M515.211,-123.025C528.515,-113.148 545.667,-100.414 562.36,-88.0208"/>
<polygon fill="red" stroke="red" points="564.555,-90.7498 570.498,-81.9786 560.383,-85.1294 564.555,-90.7498"/>
</g>
<!-- travel reqgrp 2 req 0\n\ntime from unit -->
<g id="node20" class="node"><title>travel reqgrp 2 req 0\n\ntime from unit</title>
<ellipse fill="none" stroke="green" cx="886" cy="-43" rx="113.844" ry="42.4264"/>
<text text-anchor="middle" x="886" y="-56.4" font-family="Times Roman,serif" font-size="14.00">travel reqgrp 2 req 0</text>
<text text-anchor="middle" x="886" y="-22.4" font-family="Times Roman,serif" font-size="14.00">time from unit</text>
</g>
<!-- travel reqgrp 2&#45;&gt;travel reqgrp 2 req 0\n\ntime from unit -->
<g id="edge20" class="edge"><title>travel reqgrp 2&#45;&gt;travel reqgrp 2 req 0\n\ntime from unit</title>
<path fill="none" stroke="red" d="M886,-122.105C886,-114.507 886,-105.333 886,-95.9649"/>
<polygon fill="red" stroke="red" points="889.5,-95.7882 886,-85.7882 882.5,-95.7882 889.5,-95.7882"/>
</g>
<!-- travel reqgrp 2 req 1\n\ndirection from descriptor -->
<g id="node22" class="node"><title>travel reqgrp 2 req 1\n\ndirection from descriptor</title>
<ellipse fill="none" stroke="green" cx="1149" cy="-43" rx="130.815" ry="42.4264"/>
<text text-anchor="middle" x="1149" y="-56.4" font-family="Times Roman,serif" font-size="14.00">travel reqgrp 2 req 1</text>
<text text-anchor="middle" x="1149" y="-22.4" font-family="Times Roman,serif" font-size="14.00">direction from descriptor</text>
</g>
<!-- travel reqgrp 2&#45;&gt;travel reqgrp 2 req 1\n\ndirection from descriptor -->
<g id="edge22" class="edge"><title>travel reqgrp 2&#45;&gt;travel reqgrp 2 req 1\n\ndirection from descriptor</title>
<path fill="none" stroke="red" d="M929.135,-124.927C962.734,-112.407 1010.66,-94.5495 1053.19,-78.7003"/>
<polygon fill="red" stroke="red" points="1054.59,-81.9133 1062.74,-75.1419 1052.15,-75.3539 1054.59,-81.9133"/>
</g>
</g>
</svg>
